<svg xmlns="http://www.w3.org/2000/svg" width="107.354" height="108.104" viewBox="0 0 107.354 108.104">
  <g id="Grupo_1008500" data-name="Grupo 1008500" transform="translate(6697.021 18908.984)">
    <g id="Grupo_1008469" data-name="Grupo 1008469" transform="translate(-2496.021 -9286.985)">
      <path id="Trazado_712755" data-name="Trazado 712755" d="M190.707,231.356l-23.4-13.269a.754.754,0,0,0-.749,0L143.076,231.4l3.083,7.378,20.693,6.1,24.013-6.327Z" transform="translate(-4314.254 -9793.98)" fill="#c3e937"/>
      <path id="Trazado_712756" data-name="Trazado 712756" d="M178.5,351.124l-32.355-5.7-29.315,7.041v9.582l29.014,16.893a.757.757,0,0,0,.762,0l28.9-16.825-.04-.068Z" transform="translate(-4293.544 -9894.517)" fill="#c3e937"/>
      <g id="Grupo_1008309" data-name="Grupo 1008309" transform="translate(-4199.417 -9562.623)">
        <path id="Trazado_712757" data-name="Trazado 712757" d="M307.515,297.168a.759.759,0,0,1,.008,1.315l-22.439,13.064-.04-.068-29.318-16.623,23.855-13.526Z" transform="translate(-203.712 -281.33)" fill="#adce32"/>
        <path id="Trazado_712758" data-name="Trazado 712758" d="M37.516,281.54l23.775,13.482L31.976,311.645h0l-22.319-13a.758.758,0,0,1,.006-1.315Z" transform="translate(-9.277 -281.496)" fill="#adce32"/>
      </g>
      <path id="Trazado_712759" data-name="Trazado 712759" d="M177.99,35.708a28.208,28.208,0,1,0-32.825,27.83l3.677,4.327a1.235,1.235,0,0,0,1.882,0l3.677-4.327A28.214,28.214,0,0,0,177.99,35.708Z" transform="translate(-4297.291 -9627.916)" fill="#f37c7c"/>
      <path id="Trazado_712760" data-name="Trazado 712760" d="M134.066,41.73A32.253,32.253,0,0,1,161.173,9.894,28.214,28.214,0,1,0,141.9,62.8,32.123,32.123,0,0,1,134.066,41.73Z" transform="translate(-4297.291 -9627.917)" fill="#ee6161"/>
      <g id="Grupo_1008311" data-name="Grupo 1008311" transform="translate(-4168.205 -9612.903)">
        <path id="Trazado_712761" data-name="Trazado 712761" d="M163.736,78.916a20.692,20.692,0,1,1,14.126,5.574A20.623,20.623,0,0,1,163.736,78.916Z" transform="translate(-157.166 -43.1)" fill="#c8effe"/>
      </g>
      <path id="Trazado_712762" data-name="Trazado 712762" d="M157.166,64.028A20.617,20.617,0,0,0,163.34,78.77,32.288,32.288,0,0,1,176.245,43.4,20.7,20.7,0,0,0,157.166,64.028Z" transform="translate(-4325.371 -9656.237)" fill="#99e6fc"/>
      <g id="XMLID_286_" transform="translate(-4161.634 -9584.585)">
        <g id="Grupo_1008312" data-name="Grupo 1008312" transform="translate(0 0)">
          <path id="Trazado_712763" data-name="Trazado 712763" d="M216.539,184.45l.163.182a20.692,20.692,0,0,1-28.406.141l4.548-3.892a15.021,15.021,0,0,1,19.527,0Z" transform="translate(-188.296 -177.275)" fill="#fdd79b"/>
        </g>
      </g>
      <g id="Grupo_1008313" data-name="Grupo 1008313" transform="translate(-4156.972 -9601.809)">
        <path id="Trazado_712764" data-name="Trazado 712764" d="M260.223,103.745H256.1V101.2a5.529,5.529,0,0,1,5.529-5.529h3.222a.9.9,0,0,1,.9.9v1.646A5.529,5.529,0,0,1,260.223,103.745Z" transform="translate(-246.454 -95.672)" fill="#fee97d"/>
        <path id="Trazado_712765" data-name="Trazado 712765" d="M215.916,114.475h4.12v-2.544a5.529,5.529,0,0,0-5.529-5.529h-3.222a.9.9,0,0,0-.9.9v1.646A5.529,5.529,0,0,0,215.916,114.475Z" transform="translate(-210.387 -104.137)" fill="#fee97d"/>
      </g>
      <g id="Grupo_1008315" data-name="Grupo 1008315" transform="translate(-4192.039 -9572.781)">
        <circle id="Elipse_5143" data-name="Elipse 5143" cx="5.385" cy="5.385" r="5.385" transform="translate(39.33 32.224)" fill="#f37c7c"/>
        <circle id="Elipse_5144" data-name="Elipse 5144" cx="5.385" cy="5.385" r="5.385" transform="translate(0 0)" fill="#f37c7c"/>
        <circle id="Elipse_5145" data-name="Elipse 5145" cx="5.385" cy="5.385" r="5.385" transform="translate(78.502 0)" fill="#f37c7c"/>
      </g>
      <g id="Grupo_1008317" data-name="Grupo 1008317" transform="translate(-4201 -9622)">
        <path id="Trazado_712766" data-name="Trazado 712766" d="M107.944,251.906l-11.736-6.654v-5.795a6.968,6.968,0,1,0-3.166,0v4L76.68,234.179a1.583,1.583,0,0,0-1.562,2.754l.9.511L55.374,249.151,34.807,237.489l.77-.436a1.583,1.583,0,0,0-1.562-2.754l-16.309,9.248v-4.09a6.968,6.968,0,1,0-3.166,0v5.885L2.963,251.906a2.341,2.341,0,0,0-.023,4.059l22.331,13h0l29,16.887a2.346,2.346,0,0,0,2.356,0L91.86,265.343a1.583,1.583,0,1,0-1.593-2.736l-5.505,3.205L58.584,250.97,79.23,239.264,93.043,247.1v6.186a1.583,1.583,0,1,0,3.166,0V248.89l8.926,5.061L96.3,259.1a1.583,1.583,0,1,0,1.593,2.736l10.078-5.868a2.341,2.341,0,0,0-.024-4.059ZM90.823,232.673a3.8,3.8,0,1,1,3.8,3.8A3.806,3.806,0,0,1,90.823,232.673Zm-78.5,0a3.8,3.8,0,1,1,3.8,3.8A3.806,3.806,0,0,1,12.321,232.673Zm2.219,16.308v4.3a1.583,1.583,0,1,0,3.166,0v-6.1L31.6,239.309,52.165,250.97l-26.1,14.8L5.773,253.952Zm67.054,18.676L55.454,282.878l-26.22-15.266,26.14-14.822Z" transform="translate(-1.777 -178.069)"/>
        <path id="Trazado_712767" data-name="Trazado 712767" d="M156.616,74.023h0a1.583,1.583,0,0,0,.264.245,22.27,22.27,0,1,0-1.836-30.909,1.583,1.583,0,1,0,2.4,2.063,19.107,19.107,0,1,1,28.7,25.231l-1.292-1.105a1.583,1.583,0,0,0-2.058,2.406l1.03.881a19.071,19.071,0,0,1-23.559.151l3.134-2.681a13.487,13.487,0,0,1,14.249-2.041,1.583,1.583,0,0,0,1.3-2.887A16.486,16.486,0,0,0,173.714,64V57.93h2.537a7.119,7.119,0,0,0,7.111-7.111V49.172a2.484,2.484,0,0,0-2.481-2.481H177.66a7.12,7.12,0,0,0-6.4,4.01,7.079,7.079,0,0,0-4.659-1.745h-3.222a2.484,2.484,0,0,0-2.481,2.481v1.646a7.12,7.12,0,0,0,7.111,7.111h2.537V64a16.61,16.61,0,0,0-9.209,3.9l-3.427,2.932a19.107,19.107,0,0,1-3.706-20.083,1.583,1.583,0,0,0-2.937-1.181,22.273,22.273,0,0,0,5.347,24.455Zm17.1-20.22a3.95,3.95,0,0,1,3.946-3.946H180.2v.962a3.95,3.95,0,0,1-3.946,3.946h-2.537Zm-5.7,3.226a3.95,3.95,0,0,1-3.946-3.946v-.962H166.6a3.95,3.95,0,0,1,3.946,3.946v.962Z" transform="translate(-118.455 -28.083)"/>
        <path id="Trazado_712768" data-name="Trazado 712768" d="M138.411,59.081l3.306,3.891a2.817,2.817,0,0,0,4.294,0l3.306-3.891a29.786,29.786,0,1,0-10.907,0ZM117.243,29.313A26.7,26.7,0,0,1,143.671,3.167h.194a26.626,26.626,0,0,1,4.359,52.893,1.584,1.584,0,0,0-.949.537l-3.411,4.014L140.453,56.6a1.583,1.583,0,0,0-.949-.537,26.63,26.63,0,0,1-22.261-26.745Z" transform="translate(-90.373 0)"/>
        <path id="Trazado_712769" data-name="Trazado 712769" d="M228.475,392.138v4.968a1.583,1.583,0,1,0,3.166,0v-4.968a6.968,6.968,0,1,0-3.166,0Zm1.583-10.586a3.8,3.8,0,1,1-3.8,3.8A3.806,3.806,0,0,1,230.058,381.552Z" transform="translate(-176.381 -298.526)"/>
      </g>
    </g>
  </g>
</svg>
