<svg xmlns="http://www.w3.org/2000/svg" width="26.458" height="33.714" viewBox="0 0 26.458 33.714">
  <g id="Grupo_1003916" data-name="Grupo 1003916" transform="translate(-396.005 -181.159)">
    <g id="Grupo_80370" data-name="Grupo 80370" transform="translate(396.767 181.16)">
      <path id="Trazado_113927" data-name="Trazado 113927" d="M409.514,181.163a12.845,12.845,0,0,0-10.124,20.344l0,0,.125.17.017.024,9.1,12.374a1.953,1.953,0,0,0,3.194-.067l8.223-12.225a13.916,13.916,0,0,0,2.623-7.777A12.848,12.848,0,0,0,409.514,181.163Zm.3,22.188a9.659,9.659,0,1,1,9.659-9.659A9.659,9.659,0,0,1,409.818,203.351Z" transform="translate(-396.97 -181.16)" fill="#ff725e"/>
    </g>
    <g id="Grupo_80371" data-name="Grupo 80371" transform="translate(396.767 181.16)" opacity="0.3">
      <path id="Trazado_113928" data-name="Trazado 113928" d="M409.514,181.163a12.845,12.845,0,0,0-10.124,20.344l0,0,.125.17.017.024,9.1,12.374a1.953,1.953,0,0,0,3.194-.067l8.223-12.225a13.916,13.916,0,0,0,2.623-7.777A12.848,12.848,0,0,0,409.514,181.163Zm.3,22.188a9.659,9.659,0,1,1,9.659-9.659A9.659,9.659,0,0,1,409.818,203.351Z" transform="translate(-396.97 -181.16)"/>
    </g>
    <g id="Grupo_80372" data-name="Grupo 80372" transform="translate(396.005 181.16)">
      <path id="Trazado_113929" data-name="Trazado 113929" d="M408.549,181.163a12.845,12.845,0,0,0-10.124,20.344l0,0,.125.17.017.024,9.1,12.374a1.953,1.953,0,0,0,3.194-.067l8.223-12.225a13.917,13.917,0,0,0,2.624-7.777A12.848,12.848,0,0,0,408.549,181.163Zm.305,20.447a7.316,7.316,0,1,1,7.315-7.316A7.316,7.316,0,0,1,408.854,201.61Z" transform="translate(-396.005 -181.16)" fill="#ffa686"/>
    </g>
  </g>
</svg>
