<svg xmlns="http://www.w3.org/2000/svg" width="85" height="91" viewBox="0 0 85 91">
  <g id="Grupo_1008391" data-name="Grupo 1008391" transform="translate(12585 -1083)">
    <g id="Grupo_1008342" data-name="Grupo 1008342" transform="translate(-12765 -1919.893)">
      <rect id="Rectángulo_347314" data-name="Rectángulo 347314" width="85" height="91" transform="translate(180 3002.893)" fill="none"/>
      <g id="_022-soil_analysis" data-name="022-soil analysis" transform="translate(181 3006.203)">
        <g id="Grupo_1008340" data-name="Grupo 1008340" transform="translate(4.328 1.328)">
          <g id="Grupo_1008339" data-name="Grupo 1008339" transform="translate(20.03 54.411)">
            <circle id="Elipse_5165" data-name="Elipse 5165" cx="3.372" cy="3.372" r="3.372" transform="translate(23.606 7.869)" fill="#9b7868"/>
            <circle id="Elipse_5166" data-name="Elipse 5166" cx="3.372" cy="3.372" r="3.372" transform="translate(0 14.613)" fill="#9b7868"/>
            <ellipse id="Elipse_5167" data-name="Elipse 5167" cx="2.248" cy="2.81" rx="2.248" ry="2.81" transform="translate(13.489 0)" fill="#9b7868"/>
          </g>
          <path id="Trazado_712819" data-name="Trazado 712819" d="M69.985,60.968a6.7,6.7,0,0,1-4.965,11.2H14.7a6.7,6.7,0,0,1-4.965-11.2L28.777,39.925a14.937,14.937,0,0,1,22.171,0Zm-16.847-5.39A3.319,3.319,0,1,0,49.819,58.9,3.32,3.32,0,0,0,53.138,55.578ZM41.19,46.948A2.655,2.655,0,1,0,38.534,49.6,2.663,2.663,0,0,0,41.19,46.948ZM29.241,62.216a3.319,3.319,0,1,0-3.319,3.319A3.32,3.32,0,0,0,29.241,62.216Z" transform="translate(-2.69 10.138)" fill="#af9084"/>
          <path id="Trazado_712820" data-name="Trazado 712820" d="M42,18h6.638v7.966H42Z" transform="translate(8.448 4.569)" fill="#ea9939"/>
          <path id="Trazado_712821" data-name="Trazado 712821" d="M43.638,20.293v7.966H37V11h6.638Z" transform="translate(6.81 2.276)" fill="#7fc94f"/>
          <path id="Trazado_712822" data-name="Trazado 712822" d="M32,15h6.638V26.948H32Z" transform="translate(5.172 3.586)" fill="#d74c4c"/>
          <path id="Trazado_712823" data-name="Trazado 712823" d="M32.145,26.755a11.948,11.948,0,1,0-9.559,4.779A11.9,11.9,0,0,0,32.145,26.755Zm46.2-13.807V38.172H4V12.948A11.966,11.966,0,0,1,15.948,1H66.4A11.949,11.949,0,0,1,78.345,12.948ZM61.086,31.534V23.569H54.448V14.276H47.81v5.31H41.172V31.534Z" transform="translate(-4 -1)" fill="#e6e6e6"/>
          <path id="Trazado_712824" data-name="Trazado 712824" d="M29.948,17.948a11.9,11.9,0,0,1-2.39,7.169L18,17.948V6A11.949,11.949,0,0,1,29.948,17.948Z" transform="translate(0.586 0.638)" fill="#d74c4c"/>
          <path id="Trazado_712825" data-name="Trazado 712825" d="M20.948,17.948l9.559,7.169A11.948,11.948,0,1,1,20.948,6Z" transform="translate(-2.362 0.638)" fill="#ea9939"/>
        </g>
        <g id="Grupo_1008341" data-name="Grupo 1008341" transform="translate(3)">
          <ellipse id="Elipse_5168" data-name="Elipse 5168" cx="1.124" cy="1.686" rx="1.124" ry="1.686" transform="translate(64.073 57.987)" fill="#252525"/>
          <circle id="Elipse_5169" data-name="Elipse 5169" cx="1.686" cy="1.686" r="1.686" transform="translate(10.117 57.987)" fill="#252525"/>
          <circle id="Elipse_5170" data-name="Elipse 5170" cx="2.248" cy="2.248" r="2.248" transform="translate(37.095 6.279)" fill="#252525"/>
          <circle id="Elipse_5171" data-name="Elipse 5171" cx="2.248" cy="2.248" r="2.248" transform="translate(43.839 6.279)" fill="#252525"/>
          <circle id="Elipse_5172" data-name="Elipse 5172" cx="1.686" cy="1.686" r="1.686" transform="translate(34.847 69.228)" fill="#252525"/>
          <ellipse id="Elipse_5173" data-name="Elipse 5173" cx="1.686" cy="2.248" rx="1.686" ry="2.248" transform="translate(56.204 72.6)" fill="#252525"/>
          <path id="Trazado_712826" data-name="Trazado 712826" d="M52.26,39.363a16.267,16.267,0,0,0-24.141,0L9.082,60.406A8.036,8.036,0,0,0,7,65.8a8.036,8.036,0,0,0,8.032,8.031H65.347A8.03,8.03,0,0,0,71.3,60.4L52.261,39.362ZM65.347,71.172H15.032A5.38,5.38,0,0,1,9.655,65.8a5.386,5.386,0,0,1,1.4-3.611L30.088,41.145a13.61,13.61,0,0,1,20.2,0L69.328,62.185a5.375,5.375,0,0,1-3.98,8.989Z" transform="translate(-1.69 11.138)" fill="#252525"/>
          <path id="Trazado_712827" data-name="Trazado 712827" d="M66.724,0H16.276A13.294,13.294,0,0,0,3,13.276V49.121a1.322,1.322,0,0,0,.389.939L10.027,56.7a1.39,1.39,0,0,0,1.877,0,1.318,1.318,0,0,0,0-1.877L5.655,48.571V39.828h71.69v8.743L71.1,54.82a1.326,1.326,0,0,0,0,1.877,1.185,1.185,0,0,0,1.877,0l6.638-6.638A1.324,1.324,0,0,0,80,49.121V13.276A13.291,13.291,0,0,0,66.724,0ZM5.655,13.276A10.64,10.64,0,0,1,16.276,2.655H66.724A10.633,10.633,0,0,1,77.345,13.276v23.9H5.655Z" transform="translate(-3)" fill="#252525"/>
          <path id="Trazado_712828" data-name="Trazado 712828" d="M21.276,5A13.277,13.277,0,1,0,34.552,18.276,13.291,13.291,0,0,0,21.276,5ZM10.655,18.276A10.631,10.631,0,0,1,19.948,7.747V18.276a1.329,1.329,0,0,0,.531,1.062l8.428,6.321a10.617,10.617,0,0,1-18.25-7.383Zm19.829,5.247L22.6,17.612V7.747a10.574,10.574,0,0,1,7.881,15.776Z" transform="translate(-1.362 1.638)" fill="#252525"/>
          <path id="Trazado_712829" data-name="Trazado 712829" d="M52.241,19.293h-5.31V11.328A1.327,1.327,0,0,0,45.6,10H38.966a1.327,1.327,0,0,0-1.328,1.328V15.31h-5.31A1.327,1.327,0,0,0,31,16.638V28.586a1.327,1.327,0,0,0,1.328,1.328H52.241a1.327,1.327,0,0,0,1.328-1.328V20.621A1.327,1.327,0,0,0,52.241,19.293ZM40.293,12.655h3.983v14.6H40.293Zm-6.638,5.31h3.983v9.293H33.655Zm17.259,9.293H46.931v-5.31h3.983Z" transform="translate(6.172 3.276)" fill="#252525"/>
          <path id="Trazado_712830" data-name="Trazado 712830" d="M45.328,8.655H55.948a1.328,1.328,0,0,0,0-2.655H45.328a1.328,1.328,0,0,0,0,2.655Z" transform="translate(10.431 1.966)" fill="#252525"/>
          <path id="Trazado_712831" data-name="Trazado 712831" d="M56.638,11h-5.31a1.328,1.328,0,0,0,0,2.655h5.31a1.328,1.328,0,1,0,0-2.655Z" transform="translate(12.397 3.603)" fill="#252525"/>
          <path id="Trazado_712832" data-name="Trazado 712832" d="M56.638,15h-5.31a1.328,1.328,0,0,0,0,2.655h5.31a1.328,1.328,0,1,0,0-2.655Z" transform="translate(12.397 4.914)" fill="#252525"/>
          <path id="Trazado_712833" data-name="Trazado 712833" d="M56.638,19h-5.31a1.328,1.328,0,0,0,0,2.655h5.31a1.328,1.328,0,1,0,0-2.655Z" transform="translate(12.397 6.224)" fill="#252525"/>
          <path id="Trazado_712834" data-name="Trazado 712834" d="M22.647,52a4.647,4.647,0,1,0,0,9.293,1.328,1.328,0,0,0,0-2.655,1.991,1.991,0,1,1,1.991-1.991,1.328,1.328,0,1,0,2.655,0A4.652,4.652,0,0,0,22.647,52Z" transform="translate(1.914 17.034)" fill="#252525"/>
          <path id="Trazado_712835" data-name="Trazado 712835" d="M40.647,47A4.652,4.652,0,0,0,36,51.647a1.328,1.328,0,0,0,2.655,0,1.991,1.991,0,1,1,1.991,1.991,1.328,1.328,0,1,0,0,2.655,4.647,4.647,0,0,0,0-9.293Z" transform="translate(7.81 15.397)" fill="#252525"/>
          <path id="Trazado_712836" data-name="Trazado 712836" d="M31.983,41A3.988,3.988,0,0,0,28,44.983a1.328,1.328,0,1,0,2.655,0,1.328,1.328,0,0,1,2.655,0,1.328,1.328,0,1,0,2.655,0A3.988,3.988,0,0,0,31.983,41Z" transform="translate(5.19 13.431)" fill="#252525"/>
        </g>
      </g>
    </g>
  </g>
</svg>
