<svg xmlns="http://www.w3.org/2000/svg" xmlns:xlink="http://www.w3.org/1999/xlink" width="118.618" height="119.458" viewBox="0 0 118.618 119.458">
  <defs>
    <radialGradient id="radial-gradient" cx="0.076" cy="0.019" r="1.465" gradientTransform="translate(0.001)" gradientUnits="objectBoundingBox">
      <stop offset="0" stop-color="#f6f6f7"/>
      <stop offset="0.477" stop-color="#f9f9fa"/>
      <stop offset="0.715" stop-color="#fff"/>
    </radialGradient>
    <filter id="Trazado_40937" x="0" y="0.962" width="118.618" height="118.496" filterUnits="userSpaceOnUse">
      <feOffset dy="7" input="SourceAlpha"/>
      <feGaussianBlur stdDeviation="2.5" result="blur"/>
      <feFlood flood-opacity="0.102"/>
      <feComposite operator="in" in2="blur"/>
      <feComposite in="SourceGraphic"/>
    </filter>
  </defs>
  <g id="Grupo_1008447" data-name="Grupo 1008447" transform="translate(5949.159 -1675)">
    <g id="Grupo_1008406" data-name="Grupo 1008406" transform="translate(-5943 1675)">
      <g id="Grupo_18423" data-name="Grupo 18423" transform="translate(0 0)">
        <g id="Grupo_18421" data-name="Grupo 18421">
          <g id="Grupo_18420" data-name="Grupo 18420">
            <g id="Grupo_18419" data-name="Grupo 18419">
              <path id="Trazado_40936" data-name="Trazado 40936" d="M299.581,2198.2a52.479,52.479,0,1,1-52.478-52.478A52.479,52.479,0,0,1,299.581,2198.2Z" transform="translate(-194.623 -2145.721)" fill="#fff"/>
            </g>
          </g>
        </g>
        <g transform="matrix(1, 0, 0, 1, -6.16, 0)" filter="url(#Trazado_40937)">
          <path id="Trazado_40937-2" data-name="Trazado 40937" d="M299.095,2197.668a52.478,52.478,0,1,0-52.478,52.48A52.271,52.271,0,0,0,299.095,2197.668Z" transform="translate(-187.98 -2145.19)" fill="url(#radial-gradient)"/>
        </g>
        <g id="Grupo_18422" data-name="Grupo 18422" transform="translate(9.297 29.463)">
          <path id="Trazado_40939" data-name="Trazado 40939" d="M290.9,2164.488a52.485,52.485,0,0,1-90.355,52.261,52.319,52.319,0,0,0,90.355-52.261Z" transform="translate(-200.545 -2164.488)" fill="#eceef0"/>
        </g>
      </g>
    </g>
    <g id="_004-soil" data-name="004-soil" transform="translate(-5920 1696)">
      <g id="Grupo_1008327" data-name="Grupo 1008327" transform="translate(0.917 4.917)">
        <path id="Trazado_712783" data-name="Trazado 712783" d="M55.5,24.968v7.8a5.511,5.511,0,0,0-5.5-5.5V10.752a2.752,2.752,0,0,1,5.5,0Z" transform="translate(-5.058 -5.248)" fill="#f4baa6"/>
        <path id="Trazado_712784" data-name="Trazado 712784" d="M43.5,10.752V21.758a5.511,5.511,0,0,0-5.5-5.5v-5.5a2.752,2.752,0,0,1,5.5,0Z" transform="translate(-4.064 -5.248)" fill="#f4baa6"/>
        <path id="Trazado_712785" data-name="Trazado 712785" d="M49.5,10.5V27.013a5.511,5.511,0,0,0-5.5-5.5V7.752a2.752,2.752,0,0,1,5.5,0Z" transform="translate(-4.561 -5)" fill="#e09b8d"/>
        <circle id="Elipse_5146" data-name="Elipse 5146" cx="2.5" cy="2.5" r="2.5" transform="translate(19.083 21.083)" fill="#9b7868"/>
        <ellipse id="Elipse_5147" data-name="Elipse 5147" cx="2.5" cy="2" rx="2.5" ry="2" transform="translate(31.083 27.083)" fill="#9b7868"/>
        <path id="Trazado_712786" data-name="Trazado 712786" d="M52.178,60.6H32V46.847h4.586a4.588,4.588,0,0,0,4.586-4.586c.917-4.127,4.127-6.191,7.108-7.227a19.67,19.67,0,0,1,5.732-1.027v-7.8A3.226,3.226,0,0,1,57.223,23a3.214,3.214,0,0,1,3.21,3.21V38.592a12.267,12.267,0,0,1-4.109,9.163l-4.146,3.678Z" transform="translate(-3.567 -6.491)" fill="#e09b8d"/>
        <path id="Trazado_712787" data-name="Trazado 712787" d="M52.025,33.1a19.67,19.67,0,0,0-5.732,1.027c-2.981,1.036-6.191,3.1-7.108,7.227A4.588,4.588,0,0,1,34.6,45.936H25.427a4.572,4.572,0,0,1-4.586-4.586C19.923,33.1,8.009,33.1,8,33.1a5.508,5.508,0,0,1,5.5-5.5,5.511,5.511,0,0,1,5.5-5.5,5.511,5.511,0,0,1,5.5-5.5A4.572,4.572,0,0,1,29.1,12H30.93a4.588,4.588,0,0,1,4.586,4.586,5.511,5.511,0,0,1,5.5,5.5,5.511,5.511,0,0,1,5.5,5.5,5.511,5.511,0,0,1,5.5,5.5ZM37.35,34.471a2.293,2.293,0,1,0-2.293,2.293A2.294,2.294,0,0,0,37.35,34.471Zm-5.5-12.382a1.834,1.834,0,1,0-1.834,1.834A1.84,1.84,0,0,0,31.847,22.089Zm-6.42,6.879a2.293,2.293,0,1,0-2.293,2.293A2.294,2.294,0,0,0,25.427,28.968Z" transform="translate(-1.58 -5.58)" fill="#896148"/>
        <path id="Trazado_712788" data-name="Trazado 712788" d="M29.433,60.6H9.255V51.433L5.109,47.755A12.267,12.267,0,0,1,1,38.592V26.21A3.214,3.214,0,0,1,4.21,23a3.226,3.226,0,0,1,3.21,3.21v7.8c.009,0,11.923,0,12.841,8.255a4.572,4.572,0,0,0,4.586,4.586h4.586Z" transform="translate(-1 -6.491)" fill="#f4baa6"/>
        <path id="Trazado_712789" data-name="Trazado 712789" d="M13.5,27.261a5.508,5.508,0,0,0-5.5,5.5V10.752a2.752,2.752,0,1,1,5.5,0Z" transform="translate(-1.58 -5.248)" fill="#e09b8d"/>
        <path id="Trazado_712790" data-name="Trazado 712790" d="M15.614,23.124A5.452,5.452,0,0,0,14,27.013V7.752a2.752,2.752,0,0,1,5.5,0V21.509A5.452,5.452,0,0,0,15.614,23.124Z" transform="translate(-2.077 -5)" fill="#f4baa6"/>
        <path id="Trazado_712791" data-name="Trazado 712791" d="M20,21.758V10.752a2.752,2.752,0,1,1,5.5,0v5.5a5.511,5.511,0,0,0-5.5,5.5Z" transform="translate(-2.573 -5.248)" fill="#e09b8d"/>
        <circle id="Elipse_5148" data-name="Elipse 5148" cx="1.5" cy="1.5" r="1.5" transform="translate(27.083 15.083)" fill="#9b7868"/>
      </g>
      <g id="Grupo_1008328" data-name="Grupo 1008328" transform="translate(0 4)">
        <circle id="Elipse_5149" data-name="Elipse 5149" cx="1.5" cy="1.5" r="1.5" transform="translate(25 32)" fill="#252525"/>
        <circle id="Elipse_5150" data-name="Elipse 5150" cx="1.5" cy="1.5" r="1.5" transform="translate(36 20)" fill="#252525"/>
        <path id="Trazado_712792" data-name="Trazado 712792" d="M54.573,20.509a4.075,4.075,0,0,0-2.293.7V10.42a3.646,3.646,0,0,0-5.541-3.138,3.649,3.649,0,0,0-7.26,0,3.63,3.63,0,0,0-1.874-.53,3.672,3.672,0,0,0-3.669,3.669v1.416a5.474,5.474,0,0,0-3.669-1.416H28.433a5.5,5.5,0,0,0-3.669,1.4v-1.4A3.672,3.672,0,0,0,21.1,6.752a3.624,3.624,0,0,0-1.874.53,3.648,3.648,0,0,0-7.26,0A3.658,3.658,0,0,0,6.42,10.42V21.206a4.075,4.075,0,0,0-2.293-.7A4.132,4.132,0,0,0,0,24.637V37.019a13.2,13.2,0,0,0,4.417,9.849l3.838,3.4v7.842a.917.917,0,1,0,1.834,0V49.859a.92.92,0,0,0-.308-.686L5.637,45.5a11.367,11.367,0,0,1-3.8-8.479V24.636a2.3,2.3,0,0,1,2.293-2.293A2.308,2.308,0,0,1,6.42,24.636v7.8a.918.918,0,0,0,.917.917c.111,0,11.067.1,11.924,7.393a5.488,5.488,0,0,0,5.5,5.448h3.669V58.113a.917.917,0,0,0,1.834,0V46.19h3.669a5.51,5.51,0,0,0,5.5-5.4,8.11,8.11,0,0,1,3.308-4.864.917.917,0,1,0-1.066-1.493,9.9,9.9,0,0,0-4.054,6.051c-.338,2.049-1.667,3.868-3.691,3.868H24.764a3.677,3.677,0,0,1-2.595-1.067,4.468,4.468,0,0,1-1.08-2.7c-.842-7.581-9.707-8.825-12.746-9.03a4.591,4.591,0,0,1,4.5-3.71.918.918,0,0,0,.917-.917,4.594,4.594,0,0,1,4.586-4.586.918.918,0,0,0,.917-.917,4.594,4.594,0,0,1,4.586-4.586.918.918,0,0,0,.917-.917,3.655,3.655,0,0,1,3.669-3.669h1.834a3.672,3.672,0,0,1,3.669,3.669.918.918,0,0,0,.917.917,4.594,4.594,0,0,1,4.586,4.586.918.918,0,0,0,.917.917,4.594,4.594,0,0,1,4.586,4.586.918.918,0,0,0,.917.917,4.594,4.594,0,0,1,4.5,3.717,20.8,20.8,0,0,0-5.029,1.028.917.917,0,0,0-.569,1.166.951.951,0,0,0,1.166.569,18.92,18.92,0,0,1,5.434-.977.917.917,0,0,0,.916-.917v-7.8a2.308,2.308,0,0,1,2.293-2.293,2.3,2.3,0,0,1,2.293,2.293V37.018a11.365,11.365,0,0,1-3.8,8.477l-4.146,3.678a.917.917,0,0,0-.308.686v8.255a.917.917,0,0,0,1.834,0V50.271l3.839-3.406A13.2,13.2,0,0,0,58.7,37.018V24.636a4.132,4.132,0,0,0-4.127-4.127ZM8.255,27.968V10.42a1.834,1.834,0,1,1,3.669,0V26.082a6.39,6.39,0,0,0-3.669,1.887Zm5.5-5.52V7.669a1.834,1.834,0,0,1,3.669,0V20.578A5.962,5.962,0,0,0,13.758,22.448Zm5.5-5.5V10.42a1.834,1.834,0,1,1,3.669,0v4.656a6.11,6.11,0,0,0-3.669,1.87ZM35.77,15.076V10.42a1.834,1.834,0,0,1,3.669,0v6.524a6.235,6.235,0,0,0-3.669-1.868Zm5.5,5.5V7.669a1.834,1.834,0,0,1,3.669,0V22.447a5.781,5.781,0,0,0-3.669-1.869Zm5.5,5.5V10.42a1.834,1.834,0,0,1,3.669,0V27.949A5.951,5.951,0,0,0,46.777,26.081Z" transform="translate(0 -4)" fill="#252525"/>
        <path id="Trazado_712793" data-name="Trazado 712793" d="M37.21,34.834a1.377,1.377,0,0,1,1.376,1.376.917.917,0,1,0,1.834,0,3.21,3.21,0,1,0-3.21,3.21.917.917,0,0,0,0-1.834,1.376,1.376,0,1,1,0-2.752Z" transform="translate(-2.816 -6.401)" fill="#252525"/>
        <path id="Trazado_712794" data-name="Trazado 712794" d="M30.834,22.752a.917.917,0,0,1,1.834,0,.917.917,0,0,0,1.834,0,2.752,2.752,0,0,0-5.5,0,.917.917,0,0,0,1.834,0Z" transform="translate(-2.401 -5.325)" fill="#252525"/>
        <path id="Trazado_712795" data-name="Trazado 712795" d="M24.21,31.586a.917.917,0,0,0,0,1.834A3.21,3.21,0,1,0,21,30.21a.917.917,0,1,0,1.834,0,1.376,1.376,0,1,1,1.376,1.376Z" transform="translate(-1.739 -5.905)" fill="#252525"/>
        <path id="Trazado_712796" data-name="Trazado 712796" d="M24.917,59a.918.918,0,0,0-.917.917v2.752a.917.917,0,0,0,1.834,0V59.917A.918.918,0,0,0,24.917,59Z" transform="translate(-1.987 -8.555)" fill="#252525"/>
        <path id="Trazado_712797" data-name="Trazado 712797" d="M38.917,59a.918.918,0,0,0-.917.917v2.752a.917.917,0,1,0,1.834,0V59.917A.918.918,0,0,0,38.917,59Z" transform="translate(-3.147 -8.555)" fill="#252525"/>
      </g>
    </g>
  </g>
</svg>
