<svg xmlns="http://www.w3.org/2000/svg" xmlns:xlink="http://www.w3.org/1999/xlink" width="118.618" height="119.458" viewBox="0 0 118.618 119.458">
  <defs>
    <radialGradient id="radial-gradient" cx="0.076" cy="0.019" r="1.465" gradientTransform="translate(0.001)" gradientUnits="objectBoundingBox">
      <stop offset="0" stop-color="#f6f6f7"/>
      <stop offset="0.477" stop-color="#f9f9fa"/>
      <stop offset="0.715" stop-color="#fff"/>
    </radialGradient>
    <filter id="Trazado_40937" x="0" y="0.962" width="118.618" height="118.496" filterUnits="userSpaceOnUse">
      <feOffset dy="7" input="SourceAlpha"/>
      <feGaussianBlur stdDeviation="2.5" result="blur"/>
      <feFlood flood-opacity="0.102"/>
      <feComposite operator="in" in2="blur"/>
      <feComposite in="SourceGraphic"/>
    </filter>
  </defs>
  <g id="Grupo_1008387" data-name="Grupo 1008387" transform="translate(-278.841 -810)">
    <g id="Grupo_1004059" data-name="Grupo 1004059" transform="translate(285 810)">
      <g id="Grupo_18423" data-name="Grupo 18423" transform="translate(0 0)">
        <g id="Grupo_18421" data-name="Grupo 18421">
          <g id="Grupo_18420" data-name="Grupo 18420">
            <g id="Grupo_18419" data-name="Grupo 18419">
              <path id="Trazado_40936" data-name="Trazado 40936" d="M299.581,2198.2a52.479,52.479,0,1,1-52.478-52.478A52.479,52.479,0,0,1,299.581,2198.2Z" transform="translate(-194.623 -2145.721)" fill="#fff"/>
            </g>
          </g>
        </g>
        <g transform="matrix(1, 0, 0, 1, -6.16, 0)" filter="url(#Trazado_40937)">
          <path id="Trazado_40937-2" data-name="Trazado 40937" d="M299.095,2197.668a52.478,52.478,0,1,0-52.478,52.48A52.271,52.271,0,0,0,299.095,2197.668Z" transform="translate(-187.98 -2145.19)" fill="url(#radial-gradient)"/>
        </g>
        <g id="Grupo_18422" data-name="Grupo 18422" transform="translate(9.297 29.463)">
          <path id="Trazado_40939" data-name="Trazado 40939" d="M290.9,2164.488a52.485,52.485,0,0,1-90.355,52.261,52.319,52.319,0,0,0,90.355-52.261Z" transform="translate(-200.545 -2164.488)" fill="#eceef0"/>
        </g>
      </g>
    </g>
    <g id="fertilidad" transform="translate(298.004 823.299)">
      <g id="Grupo_1008384" data-name="Grupo 1008384" transform="translate(9.852 9.855)">
        <g id="Grupo_1008381" data-name="Grupo 1008381" transform="translate(11.176)">
          <path id="Trazado_713123" data-name="Trazado 713123" d="M229.671,32.43c1.081-1.618,3.4-4.857,3.631-7.855A11.629,11.629,0,0,0,229.67,16a12.03,12.03,0,0,0-3.631,8.575C226.209,27.465,228.246,30.181,229.671,32.43Z" transform="translate(-211.521 -16)" fill="#adce32" fill-rule="evenodd"/>
          <path id="Trazado_713124" data-name="Trazado 713124" d="M125.568,148.389a15.359,15.359,0,0,0,18.171-11.265,16.235,16.235,0,0,0-11.888,1.47,15.055,15.055,0,0,0-6.305,7.319,14.952,14.952,0,0,0-6.261-7.319,16.235,16.235,0,0,0-11.888-1.47,15.359,15.359,0,0,0,18.171,11.264Z" transform="translate(-107.397 -121.846)" fill="#adce32" fill-rule="evenodd"/>
        </g>
        <g id="Grupo_1008382" data-name="Grupo 1008382" transform="translate(0 33.155)">
          <path id="Trazado_713125" data-name="Trazado 713125" d="M74.693,292.4c-12.252-7.012-46.417-7-58.693-.025v20.305H74.693Z" transform="translate(-16 -287.143)" fill="#937661" fill-rule="evenodd"/>
          <path id="Trazado_713126" data-name="Trazado 713126" d="M50.421,320.525a2.64,2.64,0,1,1-2.64,2.64A2.64,2.64,0,0,1,50.421,320.525Zm23.013-4.575a1.223,1.223,0,1,1-1.223,1.223A1.223,1.223,0,0,1,73.434,315.95Zm-13.608.731A1.223,1.223,0,1,1,58.6,317.9,1.223,1.223,0,0,1,59.826,316.681ZM46.208,331.214a1.223,1.223,0,1,1-1.223,1.223A1.223,1.223,0,0,1,46.208,331.214Zm26.9-1a1.223,1.223,0,1,1-1.223,1.223A1.223,1.223,0,0,1,73.106,330.214Zm20.468-11.078a2.168,2.168,0,1,1-2.168,2.168A2.168,2.168,0,0,1,93.574,319.136Zm-11.45,12.39a1.223,1.223,0,1,1-1.223,1.223A1.223,1.223,0,0,1,82.124,331.526Zm-27.472-2.286a1.886,1.886,0,1,1-1.886,1.886A1.886,1.886,0,0,1,54.651,329.239ZM81.9,320.132a2.884,2.884,0,1,1-2.884,2.884A2.884,2.884,0,0,1,81.9,320.132Zm10.756,8.878a2.64,2.64,0,1,1-2.64,2.64A2.64,2.64,0,0,1,92.656,329.01ZM66.548,320.8a4.242,4.242,0,1,1-4.242,4.242A4.242,4.242,0,0,1,66.548,320.8Z" transform="translate(-41.441 -312.428)" fill="#7e6451" fill-rule="evenodd"/>
        </g>
        <g id="Grupo_1008383" data-name="Grupo 1008383" transform="translate(0)">
          <path id="Trazado_713127" data-name="Trazado 713127" d="M72.172,23.248c-2.521-.076-3.183-2.3-1.847-4.38L72.172,16l1.847,2.869C75.354,20.945,74.692,23.172,72.172,23.248Zm-53.649,0c-2.521-.076-3.183-2.3-1.847-4.38L18.522,16l1.847,2.869C21.705,20.945,21.043,23.172,18.522,23.248Z" transform="translate(-16 -16)" fill="#a4d4ff" fill-rule="evenodd"/>
          <path id="Trazado_713128" data-name="Trazado 713128" d="M103.213,208.734c-2.521-.076-3.183-2.3-1.847-4.38l1.847-2.869,1.847,2.869C106.4,206.431,105.733,208.658,103.213,208.734Zm-43.6,0c-2.521-.076-3.183-2.3-1.847-4.38l1.847-2.869,1.847,2.869C62.8,206.431,62.133,208.658,59.612,208.734Z" transform="translate(-52.066 -178.805)" fill="#a4d4ff" fill-rule="evenodd"/>
        </g>
      </g>
      <path id="Trazado_713129" data-name="Trazado 713129" d="M59.871,35.867,61,34.117l1.128,1.75a2.425,2.425,0,0,1,.38,2.312,1.892,1.892,0,0,1-3.015,0,2.425,2.425,0,0,1,.38-2.312Zm-1.893,3.109a3.3,3.3,0,0,0,3,1.663h.052a3.294,3.294,0,0,0,2.992-1.663,4.02,4.02,0,0,0-.455-4.035l-1.847-2.869a.855.855,0,0,0-1.438,0l-1.847,2.869a4.034,4.034,0,0,0-.455,4.035Zm-41.7-3.109,1.128-1.75,1.122,1.75a2.41,2.41,0,0,1,.38,2.312,1.675,1.675,0,0,1-1.5.749,1.679,1.679,0,0,1-1.507-.749A2.394,2.394,0,0,1,16.275,35.867Zm-1.9,3.109a3.3,3.3,0,0,0,3,1.663h.052a3.3,3.3,0,0,0,3-1.663,4.036,4.036,0,0,0-.46-4.035l-1.841-2.869a.861.861,0,0,0-1.444,0L14.83,34.941A4.034,4.034,0,0,0,14.376,38.976Zm-3.13-25.79,1.128-1.751L13.5,13.187a2.426,2.426,0,0,1,.38,2.313,1.688,1.688,0,0,1-1.507.747,1.672,1.672,0,0,1-1.5-.747A2.406,2.406,0,0,1,11.246,13.187Zm1.1,4.772H12.4A3.3,3.3,0,0,0,15.394,16.3a4.023,4.023,0,0,0-.455-4.037L13.093,9.391A.849.849,0,0,0,12.374,9a.865.865,0,0,0-.719.392L9.807,12.26A4.037,4.037,0,0,0,9.353,16.3a3.3,3.3,0,0,0,3,1.662ZM64.9,13.187l1.122-1.751,1.128,1.751a2.41,2.41,0,0,1,.38,2.313,1.894,1.894,0,0,1-3.015,0A2.414,2.414,0,0,1,64.9,13.187ZM66,17.958h.052a3.311,3.311,0,0,0,3-1.662,4.039,4.039,0,0,0-.46-4.037L66.741,9.391A.85.85,0,0,0,66.022,9a.865.865,0,0,0-.719.392L63.456,12.26A4.037,4.037,0,0,0,63,16.3a3.3,3.3,0,0,0,3,1.662Zm-25.374,29.8a1.223,1.223,0,1,1,1.22,1.223A1.222,1.222,0,0,1,40.625,47.755Zm-11.162.731a1.223,1.223,0,1,1-1.226-1.223A1.228,1.228,0,0,1,29.462,48.486ZM15.843,63.019a1.223,1.223,0,1,1-1.22-1.223A1.226,1.226,0,0,1,15.843,63.019Zm24.454-1a1.223,1.223,0,1,1,1.22,1.223A1.223,1.223,0,0,1,40.3,62.019ZM61.989,50.573a1.313,1.313,0,1,1-1.318,1.314A1.317,1.317,0,0,1,61.989,50.573Zm0,4.337a3.025,3.025,0,1,0-3.026-3.024A3.027,3.027,0,0,0,61.989,54.91Zm-10.23,8.42a1.223,1.223,0,1,1-1.22-1.223A1.222,1.222,0,0,1,51.758,63.33Zm-28.694-.594a1.029,1.029,0,1,1,1.03-1.029A1.03,1.03,0,0,1,23.064,62.736Zm0-3.771A2.741,2.741,0,1,0,25.8,61.707,2.746,2.746,0,0,0,23.064,58.965Zm27.25-7.4A2.028,2.028,0,1,1,48.283,53.6,2.029,2.029,0,0,1,50.314,51.57Zm0,5.768a3.74,3.74,0,1,0-3.74-3.741A3.746,3.746,0,0,0,50.314,57.338Zm10.754,3.109a1.784,1.784,0,1,1-1.784,1.784A1.786,1.786,0,0,1,61.068,60.447Zm0,5.28a3.5,3.5,0,1,0-3.492-3.5A3.5,3.5,0,0,0,61.068,65.727Zm-26.1-6.716a3.386,3.386,0,1,1,3.383-3.386A3.391,3.391,0,0,1,34.963,59.01Zm0-8.483a5.1,5.1,0,1,0,5.1,5.1,5.1,5.1,0,0,0-5.1-5.1Zm-16.128,5a1.784,1.784,0,1,1,1.784-1.784A1.785,1.785,0,0,1,18.835,55.531Zm3.492-1.784a3.5,3.5,0,1,0-3.492,3.5A3.5,3.5,0,0,0,22.328,53.746ZM67.691,67.692V48.772c-5.673-3.032-16.5-4.9-28.481-4.907h-.034c-11.962,0-22.779,1.866-28.464,4.884V67.692ZM28.674,33.952a14.382,14.382,0,0,1-6.582-8.2,15.538,15.538,0,0,1,10.4,1.592,13.768,13.768,0,0,1,5.719,6.524l-6.657-3.844a.856.856,0,1,0-.857,1.483l7.336,4.236A14.467,14.467,0,0,1,28.674,33.952ZM36.4,18.379A10.978,10.978,0,0,1,39.181,11.1a10.536,10.536,0,0,1,2.773,7.267,12.461,12.461,0,0,1-1.922,5.029V18.07a.854.854,0,1,0-1.709,0v5.292A11.238,11.238,0,0,1,36.4,18.379Zm9.511,8.965a15.545,15.545,0,0,1,10.4-1.593,14.507,14.507,0,0,1-15.972,9.985l7.325-4.23a.856.856,0,1,0-.857-1.482l-6.657,3.844a13.985,13.985,0,0,1,5.765-6.524ZM68.974,47.525c-6.1-3.491-17.457-5.28-28.942-5.365V37.421A16.212,16.212,0,0,0,58.2,25.341a.861.861,0,0,0-.6-1.032,17,17,0,0,0-12.549,1.552,14.922,14.922,0,0,0-5.023,4.72V26.547c.034-.049.069-.1.1-.152,1.231-1.828,3.3-4.89,3.527-7.9a12.521,12.521,0,0,0-3.89-9.254.856.856,0,0,0-1.191,0,12.936,12.936,0,0,0-3.89,9.241c.161,2.729,1.761,5.182,3.17,7.345.155.241.311.476.46.708v4.021a14.616,14.616,0,0,0-4.977-4.694,17.012,17.012,0,0,0-12.555-1.552.854.854,0,0,0-.593,1.032A16.217,16.217,0,0,0,35.918,37.608a16.264,16.264,0,0,0,2.405-.18V42.16c-11.45.084-22.779,1.864-28.9,5.339A.859.859,0,0,0,9,48.243V68.548a.858.858,0,0,0,.857.856H68.548a.853.853,0,0,0,.852-.856V48.267a.853.853,0,0,0-.426-.742Z" fill-rule="evenodd"/>
    </g>
  </g>
</svg>
