<svg id="Grupo_1008338" data-name="Grupo 1008338" xmlns="http://www.w3.org/2000/svg" xmlns:xlink="http://www.w3.org/1999/xlink" width="91" height="91" viewBox="0 0 91 91">
  <defs>
    <clipPath id="clip-path">
      <rect id="Rectángulo_348466" data-name="Rectángulo 348466" width="91" height="91" fill="none"/>
    </clipPath>
  </defs>
  <g id="Grupo_1008337" data-name="Grupo 1008337" clip-path="url(#clip-path)">
    <path id="Trazado_712799" data-name="Trazado 712799" d="M29.4,41.376,9.8,61.046a.784.784,0,0,0,.555,1.338H61.421a1.766,1.766,0,0,0,1.25-.519l19.6-19.67a.784.784,0,0,0-.555-1.338H30.654a1.766,1.766,0,0,0-1.25.519" fill="#ffa78f"/>
    <path id="Trazado_712800" data-name="Trazado 712800" d="M44.593,47.89a4.6,4.6,0,1,0,4.6,4.6,4.6,4.6,0,0,0-4.6-4.6" fill="#f89580"/>
    <path id="Trazado_712801" data-name="Trazado 712801" d="M81.72,40.857H76.033a.784.784,0,0,1,.555,1.338l-19.6,19.67a1.766,1.766,0,0,1-1.25.519h5.687a1.764,1.764,0,0,0,1.25-.519l19.6-19.67a.784.784,0,0,0-.555-1.338" fill="#f89580"/>
    <path id="Trazado_712802" data-name="Trazado 712802" d="M29.4,29.612,9.8,49.282a.784.784,0,0,0,.555,1.338H61.421a1.766,1.766,0,0,0,1.25-.519l19.6-19.67a.784.784,0,0,0-.555-1.338H30.654a1.766,1.766,0,0,0-1.25.519" fill="#e8ad8c"/>
    <path id="Trazado_712803" data-name="Trazado 712803" d="M81.72,29.093H76.033a.784.784,0,0,1,.555,1.338L56.984,50.1a1.766,1.766,0,0,1-1.25.519h5.687a1.764,1.764,0,0,0,1.25-.519l19.6-19.67a.784.784,0,0,0-.555-1.338" fill="#e19a74"/>
    <path id="Trazado_712804" data-name="Trazado 712804" d="M29.4,17.848,9.8,37.518a.784.784,0,0,0,.555,1.338H61.421a1.766,1.766,0,0,0,1.25-.519l19.6-19.67a.784.784,0,0,0-.555-1.338H30.654a1.766,1.766,0,0,0-1.25.519" fill="#adce32"/>
    <path id="Trazado_712805" data-name="Trazado 712805" d="M81.72,17.329H76.033a.784.784,0,0,1,.555,1.338l-19.6,19.67a1.766,1.766,0,0,1-1.25.519h5.687a1.764,1.764,0,0,0,1.25-.519l19.6-19.67a.784.784,0,0,0-.555-1.338" fill="#4fc123"/>
    <path id="Trazado_712806" data-name="Trazado 712806" d="M9.361,1.333a2.956,2.956,0,1,0,2.956,2.956A2.956,2.956,0,0,0,9.361,1.333" fill="#ffd947"/>
    <path id="Trazado_712807" data-name="Trazado 712807" d="M77.717,68.534a2.957,2.957,0,1,0,2.956,2.956,2.956,2.956,0,0,0-2.956-2.956" fill="#ffa686"/>
    <path id="Trazado_712808" data-name="Trazado 712808" d="M30.119,56.5c-2.736,0-4.954,1.6-4.954,3.574a3.051,3.051,0,0,0,1.178,2.313h7.551a3.049,3.049,0,0,0,1.179-2.313c0-1.973-2.218-3.574-4.954-3.574" fill="#f89580"/>
    <path id="Trazado_712809" data-name="Trazado 712809" d="M48.792,50.619a4.6,4.6,0,1,1-8.4,0" fill="none" stroke="#000" stroke-linecap="round" stroke-linejoin="round" stroke-width="2.666"/>
    <path id="Trazado_712810" data-name="Trazado 712810" d="M20.192,50.619,9.8,61.047a.782.782,0,0,0,.554,1.336H61.421a1.762,1.762,0,0,0,1.25-.519l3.986-4" fill="none" stroke="#000" stroke-linecap="round" stroke-linejoin="round" stroke-width="2.666"/>
    <path id="Trazado_712811" data-name="Trazado 712811" d="M71.883,40.858h9.838a.784.784,0,0,1,.554,1.337L71.048,53.461" fill="none" stroke="#000" stroke-linecap="round" stroke-linejoin="round" stroke-width="2.666"/>
    <line id="Línea_682" data-name="Línea 682" x1="7.878" y1="7.878" transform="translate(16.317 42.741)" fill="none" stroke="#000" stroke-linecap="round" stroke-linejoin="round" stroke-width="2.666"/>
    <line id="Línea_683" data-name="Línea 683" x1="11.764" y1="11.764" transform="translate(21.696 38.855)" fill="none" stroke="#000" stroke-linecap="round" stroke-linejoin="round" stroke-width="2.666"/>
    <line id="Línea_684" data-name="Línea 684" x1="11.764" y1="11.764" transform="translate(30.962 38.855)" fill="none" stroke="#000" stroke-linecap="round" stroke-linejoin="round" stroke-width="2.666"/>
    <line id="Línea_685" data-name="Línea 685" x1="11.764" y1="11.764" transform="translate(40.227 38.855)" fill="none" stroke="#000" stroke-linecap="round" stroke-linejoin="round" stroke-width="2.666"/>
    <line id="Línea_686" data-name="Línea 686" x1="11.766" y1="11.764" transform="translate(49.49 38.855)" fill="none" stroke="#000" stroke-linecap="round" stroke-linejoin="round" stroke-width="2.666"/>
    <line id="Línea_687" data-name="Línea 687" x1="7.575" y1="7.575" transform="translate(58.757 38.855)" fill="none" stroke="#000" stroke-linecap="round" stroke-linejoin="round" stroke-width="2.666"/>
    <line id="Línea_688" data-name="Línea 688" x1="5.874" y1="5.874" transform="translate(65.083 35.915)" fill="none" stroke="#000" stroke-linecap="round" stroke-linejoin="round" stroke-width="2.666"/>
    <line id="Línea_689" data-name="Línea 689" x1="5.872" y1="5.874" transform="translate(69.708 31.276)" fill="none" stroke="#000" stroke-linecap="round" stroke-linejoin="round" stroke-width="2.666"/>
    <path id="Trazado_712812" data-name="Trazado 712812" d="M71.883,29.093h9.838a.784.784,0,0,1,.554,1.337L62.671,50.1a1.759,1.759,0,0,1-1.249.519H10.355A.782.782,0,0,1,9.8,49.282L20.193,38.854" fill="none" stroke="#000" stroke-linecap="round" stroke-linejoin="round" stroke-width="2.666"/>
    <path id="Trazado_712813" data-name="Trazado 712813" d="M53.645,17.329H30.654a1.766,1.766,0,0,0-1.25.519L9.8,37.518a.784.784,0,0,0,.555,1.338H61.421a1.766,1.766,0,0,0,1.25-.519l19.6-19.67a.784.784,0,0,0-.555-1.338H59.866" fill="none" stroke="#000" stroke-linecap="round" stroke-linejoin="round" stroke-width="2.666"/>
    <path id="Trazado_712814" data-name="Trazado 712814" d="M12.317,4.289h9.612L40.507,20.933" fill="none" stroke="#000" stroke-linecap="round" stroke-linejoin="round" stroke-width="2.666"/>
    <path id="Trazado_712815" data-name="Trazado 712815" d="M9.361,1.333a2.956,2.956,0,1,0,2.956,2.956A2.956,2.956,0,0,0,9.361,1.333Z" fill="none" stroke="#000" stroke-linecap="round" stroke-linejoin="round" stroke-width="2.666"/>
    <line id="Línea_690" data-name="Línea 690" x2="5.893" transform="translate(6.405 13.495)" fill="none" stroke="#ffd947" stroke-linecap="round" stroke-linejoin="round" stroke-width="2.666"/>
    <line id="Línea_691" data-name="Línea 691" x2="9.835" transform="translate(6.405 18.821)" fill="none" stroke="#ffd947" stroke-linecap="round" stroke-linejoin="round" stroke-width="2.666"/>
    <line id="Línea_692" data-name="Línea 692" x2="9.835" transform="translate(6.405 24.146)" fill="none" stroke="#ffd947" stroke-linecap="round" stroke-linejoin="round" stroke-width="2.666"/>
    <path id="Trazado_712816" data-name="Trazado 712816" d="M51.2,58.743,63.945,71.49H74.76" fill="none" stroke="#000" stroke-linecap="round" stroke-linejoin="round" stroke-width="2.666"/>
    <path id="Trazado_712817" data-name="Trazado 712817" d="M77.717,68.534a2.957,2.957,0,1,0,2.956,2.956A2.955,2.955,0,0,0,77.717,68.534Z" fill="none" stroke="#000" stroke-linecap="round" stroke-linejoin="round" stroke-width="2.666"/>
    <line id="Línea_693" data-name="Línea 693" x2="5.893" transform="translate(74.76 79.015)" fill="none" stroke="#ffa686" stroke-linecap="round" stroke-linejoin="round" stroke-width="2.666"/>
    <line id="Línea_694" data-name="Línea 694" x2="9.835" transform="translate(74.76 84.341)" fill="none" stroke="#ffa686" stroke-linecap="round" stroke-linejoin="round" stroke-width="2.666"/>
    <line id="Línea_695" data-name="Línea 695" x2="9.835" transform="translate(74.76 89.667)" fill="none" stroke="#ffa686" stroke-linecap="round" stroke-linejoin="round" stroke-width="2.666"/>
    <path id="Trazado_712818" data-name="Trazado 712818" d="M33.894,62.384a3.053,3.053,0,0,0,1.178-2.313c0-1.974-2.218-3.574-4.953-3.574s-4.954,1.6-4.954,3.574a3.053,3.053,0,0,0,1.178,2.313" fill="none" stroke="#000" stroke-linecap="round" stroke-linejoin="round" stroke-width="2.666"/>
  </g>
</svg>
