<svg xmlns="http://www.w3.org/2000/svg" width="91" height="91" viewBox="0 0 91 91">
  <g id="Grupo_1008498" data-name="Grupo 1008498" transform="translate(6588 20560)">
    <g id="Grupo_1008470" data-name="Grupo 1008470" transform="translate(-6897 -21638)">
      <rect id="Rectángulo_348318" data-name="Rectángulo 348318" width="91" height="91" transform="translate(309 1078)" fill="none"/>
      <g id="gusano" transform="translate(309 1054.141)">
        <g id="Grupo_1008324" data-name="Grupo 1008324" transform="translate(1.333 30.191)">
          <g id="Grupo_1008320" data-name="Grupo 1008320" transform="translate(0 23.523)">
            <g id="Grupo_1008319" data-name="Grupo 1008319" transform="translate(0 0)">
              <path id="Trazado_712770" data-name="Trazado 712770" d="M62.635,202.071a6,6,0,0,0-5.521-10.108c-3.416.747-8.088,1.2-10.949-.9-1.72-1.26-2.428-3.135-3.531-6.343-1.285-3.737-2.885-8.388-7.5-11.927a18.279,18.279,0,0,0-1.971-1.317c-1.559-.9-3.186-1.044-5.038-1.507a26.291,26.291,0,0,0-6.066-1.27,41.263,41.263,0,0,0-9.941,1.228,6,6,0,0,0,2.772,11.675,30.868,30.868,0,0,1,6.69-.911c2.391-.018,4.646.022,6.247,1.248,1.4,1.072,2.124,2.932,2.964,5.258.16.443.325.917.5,1.425,1.315,3.822,2.951,8.579,7.79,12.122,5.194,3.8,12.125,4.79,20.6,2.937A5.975,5.975,0,0,0,62.635,202.071Z" transform="translate(-7.498 -168.701)" fill="#e9aa89"/>
            </g>
            <path id="Trazado_712771" data-name="Trazado 712771" d="M64.267,196.541a6,6,0,0,0-7.143-4.579c-3.416.747-8.088,1.2-10.949-.9-1.72-1.26-2.428-3.135-3.531-6.343-1.285-3.737-2.885-8.388-7.5-11.927a18.273,18.273,0,0,0-1.971-1.317c-1.536-.888-3.217-1.045-5.038-1.507a25.561,25.561,0,0,0-6.066-1.27,41.264,41.264,0,0,0-9.941,1.228,6,6,0,0,0-4.6,6.173,5.987,5.987,0,0,1,1.937-.841c9.765-2.319,17.509-1.355,23.017,2.866,4.618,3.539,6.218,8.19,7.5,11.927,1.1,3.207,1.811,5.083,3.531,6.343,2.861,2.094,7.533,1.643,10.949.9a5.987,5.987,0,0,1,7.27,5.525,5.99,5.99,0,0,0,2.539-6.277Z" transform="translate(-7.508 -168.7)" fill="#e4926a"/>
            <path id="Trazado_712772" data-name="Trazado 712772" d="M98.29,171.5c-1.614-.934-3.111-1.047-5.04-1.511a28.221,28.221,0,0,0-6.066-1.268,12.328,12.328,0,0,1-.479,11.991h0a10.162,10.162,0,0,1,6.256,1.625c1.4,1.071,2.115,2.555,2.954,4.879h0A13.577,13.577,0,0,0,98.29,171.5Z" transform="translate(-72.627 -168.716)" fill="#f6df7f"/>
            <path id="Trazado_712773" data-name="Trazado 712773" d="M100.506,171.5A22.345,22.345,0,0,0,89.4,168.72h0a12.465,12.465,0,0,1,1.325,5.657,19.763,19.763,0,0,1,9.084,3.767,18.056,18.056,0,0,1,2.014,1.8c.01-.063.024-.122.034-.186A13.7,13.7,0,0,0,100.506,171.5Z" transform="translate(-74.844 -168.716)" fill="#efd06f"/>
          </g>
          <g id="Grupo_1008321" data-name="Grupo 1008321" transform="translate(5.883 42.265)">
            <path id="Trazado_712774" data-name="Trazado 712774" d="M117.167,301.237a9,9,0,0,0-4.954-8.059,8.47,8.47,0,0,0-4.853-.687,2.082,2.082,0,0,1-2.3-1.495,7.819,7.819,0,0,0-10.016-5.442,2.079,2.079,0,0,1-2.284-.75c-2.2-3-8.247-9.842-18.263-10.621-.555-.043-13.756-.854-20.95,9.166a21.337,21.337,0,0,0-3.448,7.757,2.109,2.109,0,0,1-2.2,1.641,6.8,6.8,0,0,0-4.181,1.036,7.45,7.45,0,0,0-3.007,7.454C66.2,301.293,91.682,301.181,117.167,301.237Z" transform="translate(-40.599 -274.151)" fill="#ce9775"/>
          </g>
          <g id="Grupo_1008322" data-name="Grupo 1008322" transform="translate(23.905 42.265)">
            <path id="Trazado_712775" data-name="Trazado 712775" d="M152.542,276.85c10.017.779,16.068,7.625,18.263,10.621a2.078,2.078,0,0,0,2.284.75,7.819,7.819,0,0,1,10.016,5.442,2.082,2.082,0,0,0,2.3,1.495,8.47,8.47,0,0,1,4.853.687,8.713,8.713,0,0,1,4.53,5.385q2.878,0,5.756.008a9,9,0,0,0-4.954-8.059,8.469,8.469,0,0,0-4.853-.687,2.082,2.082,0,0,1-2.3-1.495,7.819,7.819,0,0,0-10.016-5.442,2.079,2.079,0,0,1-2.284-.75c-2.2-3-8.247-9.842-18.263-10.621-.441-.034-8.835-.55-15.879,4.236A28.544,28.544,0,0,1,152.542,276.85Z" transform="translate(-141.995 -274.152)" fill="#c6855b"/>
          </g>
          <path id="Trazado_712776" data-name="Trazado 712776" d="M94.057,435.349H9.277A1.777,1.777,0,0,1,7.5,433.572v-5.154a1.777,1.777,0,0,1,1.777-1.777H94.057a1.777,1.777,0,0,1,1.777,1.777v5.154A1.777,1.777,0,0,1,94.057,435.349Z" transform="translate(-7.5 -357.273)" fill="#bee49d"/>
          <path id="Trazado_712777" data-name="Trazado 712777" d="M469.832,426.64H464.5a1.777,1.777,0,0,1,1.777,1.777v5.154a1.777,1.777,0,0,1-1.777,1.777h5.332a1.777,1.777,0,0,0,1.777-1.777v-5.154A1.777,1.777,0,0,0,469.832,426.64Z" transform="translate(-383.275 -357.273)" fill="#a3d8a4"/>
          <g id="Grupo_1008323" data-name="Grupo 1008323" transform="translate(33.972 0)">
            <path id="Trazado_712778" data-name="Trazado 712778" d="M211.156,93.915h0a20.493,20.493,0,0,0-7.125-6.626,20.134,20.134,0,0,0-5.389-2.035,6.537,6.537,0,0,1,.85-.4c3.617-1.413,8.215-3.873,9.571-7.571a7.894,7.894,0,0,0,.251-4.162c-.179-1.112.4-2.029,0-3.538-1.113-4.246-2.979-8.971-.889-15.087.284-.832.212-2.543.6-3.332,3.03-6.13,9.241-10.964,18.5-14.392a6.665,6.665,0,0,1,4.626,12.5c-4.481,1.658-10.117,4.5-11.53,8.634-.633,1.853-.383,3.664.272,6.332.125.509-.151,2.378,0,2.955.929,3.543,2.458,6.461,1.593,11.3a19.984,19.984,0,0,1-.915,3.374c-1.768,4.825-5.263,8.86-10.42,12.048h0Z" transform="translate(-198.64 -36.353)" fill="#e9aa89"/>
            <path id="Trazado_712779" data-name="Trazado 712779" d="M285.219,40.707a6.666,6.666,0,0,0-8.563-3.939c-.124.046-.244.093-.367.139a6.663,6.663,0,0,1-.339,12.362c-4.481,1.658-10.117,4.5-11.53,8.634-.754,2.206-.256,4.353.688,7.957,1.139,4.344,2.556,9.749.263,16a22.367,22.367,0,0,1-6.986,9.6,21.2,21.2,0,0,1,1.9,2.45h0c5.158-3.189,8.652-7.223,10.421-12.049a20,20,0,0,0,.915-3.374c.865-4.84-.664-7.759-1.593-11.3-.151-.577.124-2.447,0-2.955-.655-2.668-.905-4.479-.272-6.332,1.413-4.132,7.049-6.976,11.53-8.634a6.664,6.664,0,0,0,3.937-8.563Z" transform="translate(-247.767 -36.353)" fill="#e4926a"/>
            <path id="Trazado_712780" data-name="Trazado 712780" d="M251.206,128.155a15.222,15.222,0,0,1-3.834-8.466,20.3,20.3,0,0,0-1.013,2.428c-2.09,6.116-.706,11.4.407,15.648.4,1.51.712,2.764.89,3.876h0a15.137,15.137,0,0,0,3.733,3.211,15.935,15.935,0,0,0,9.447,2.164c.865-4.84-.663-7.759-1.592-11.3-.151-.579.125-2.446,0-2.955h0A15.221,15.221,0,0,1,251.206,128.155Z" transform="translate(-236.987 -104.877)" fill="#f6df7f"/>
            <path id="Trazado_712781" data-name="Trazado 712781" d="M298.638,191.347c-.043-3.423-1-6.748-1.9-10.346h0a15.3,15.3,0,0,1-5.866-2.644,37.624,37.624,0,0,0,.949,4.27c.9,3.438,1.975,7.54,1.248,12.2a16.641,16.641,0,0,0,5.261.429A15.153,15.153,0,0,0,298.638,191.347Z" transform="translate(-274.478 -153.118)" fill="#efd06f"/>
          </g>
        </g>
        <path id="Trazado_712782" data-name="Trazado 712782" d="M7.673,59.4a1.333,1.333,0,1,0,1.885,0A1.333,1.333,0,0,0,7.673,59.4ZM67.4,37.367a1.333,1.333,0,1,0-1.569,1.045A1.333,1.333,0,0,0,67.4,37.367ZM87.89,98.226H85.016A10.288,10.288,0,0,0,79.4,90.278a9.825,9.825,0,0,0-5.611-.8.746.746,0,0,1-.827-.537A9.152,9.152,0,0,0,61.28,82.583a.744.744,0,0,1-.825-.26A29.217,29.217,0,0,0,58,79.4a22.08,22.08,0,0,0,1.5-3.237c2.437-6.651.961-12.279-.225-16.8-.9-3.454-1.347-5.343-.716-7.188.97-2.838,4.781-5.614,10.731-7.816a8,8,0,0,0-5.551-15,53.008,53.008,0,0,0-6.637,2.96,1.333,1.333,0,0,0,1.261,2.349,50.281,50.281,0,0,1,6.3-2.809,5.332,5.332,0,1,1,3.7,10c-4.751,1.758-10.746,4.825-12.328,9.454a9.485,9.485,0,0,0-.234,4.852,13.721,13.721,0,0,1-8.731-10.922,22.717,22.717,0,0,1,6.258-7.322,1.333,1.333,0,0,0-1.646-2.1A23.919,23.919,0,0,0,43.416,47c-2.22,6.5-.779,12,.379,16.417.691,2.638,1.527,4.929.679,7.242a5.706,5.706,0,0,1-.419.886,24.661,24.661,0,0,0-2.836-.386,23.008,23.008,0,0,0-2.831.006c-.213-.569-.43-1.191-.66-1.861-1.343-3.907-3.014-8.769-7.952-12.552-6.706-5.14-15.687-5.113-24.138-3.1A7.332,7.332,0,0,0,9.027,67.914c5.515-1.31,9.716-1.14,11.828.478,1.562,1.2,2.514,4.356,3.561,7.268a21.535,21.535,0,0,0-5.334,5.218,22.537,22.537,0,0,0-3.663,8.239.781.781,0,0,1-.819.605A8.119,8.119,0,0,0,9.61,90.97a8.6,8.6,0,0,0-3.728,7.255H3.11A3.114,3.114,0,0,0,0,101.336v5.154a3.114,3.114,0,0,0,3.11,3.11H87.89A3.114,3.114,0,0,0,91,106.49v-5.154a3.114,3.114,0,0,0-3.11-3.11ZM15.861,60A11.048,11.048,0,0,1,14.617,64.4a33.326,33.326,0,0,0-6.206.918,4.666,4.666,0,1,1-2.156-9.08,41.072,41.072,0,0,1,8.78-1.188A11.019,11.019,0,0,1,15.861,60ZM45.468,49.47a16.306,16.306,0,0,0,3.07,4.9,16.561,16.561,0,0,0,7.929,4.815c.071.279.145.563.222.857.823,3.139,1.8,6.856,1.306,11.01A14.276,14.276,0,0,1,50.4,69.027a13.757,13.757,0,0,1-3.179-2.672c-.2-1.08-.493-2.261-.848-3.615C45.407,59.052,44.227,54.547,45.468,49.47Zm1.509,22.107a7.878,7.878,0,0,0,.378-1.428,16.238,16.238,0,0,0,1.663,1.158,16.822,16.822,0,0,0,8.461,2.4c-.138.507-.3,1.018-.488,1.536a22.15,22.15,0,0,1-8.819,10.693,21.58,21.58,0,0,0-6.831-5.978,21.288,21.288,0,0,0-2.272-1.087c3.178-1.548,6.656-3.881,7.91-7.3ZM29.665,64.952a14.787,14.787,0,0,0-.066-4.84c3.22,3.114,4.53,6.923,5.608,10.059.152.443.3.865.443,1.269a27.822,27.822,0,0,0-8.9,2.816c-.2-.58-.4-1.161-.6-1.732A15.024,15.024,0,0,0,29.665,64.952Zm-7.188,1.323a9.863,9.863,0,0,0-4.961-1.786,13.7,13.7,0,0,0,1.006-4.319,13.624,13.624,0,0,0-.616-5.023,20.209,20.209,0,0,1,8.075,2.308,12.212,12.212,0,0,1-.964,12.178,8.46,8.46,0,0,0-2.54-3.357ZM88.334,106.49a.445.445,0,0,1-.444.444H3.11a.445.445,0,0,1-.444-.444v-5.154a.445.445,0,0,1,.444-.444H59.9a1.333,1.333,0,1,0,0-2.666H8.552a6,6,0,0,1,2.509-5.019,5.415,5.415,0,0,1,3.368-.824,3.431,3.431,0,0,0,3.591-2.677,19.891,19.891,0,0,1,3.229-7.272c6.816-9.493,19.638-8.625,19.766-8.616.324.025.647.059.971.1a22.641,22.641,0,0,1-6.315,3.531c-.189.073-.375.155-.559.244-.393-.078-.788-.146-1.187-.2a1.333,1.333,0,0,0-.374,2.64,18.828,18.828,0,0,1,6.5,2.166,19.338,19.338,0,0,1,7.637,7.831,1.333,1.333,0,1,0,2.351-1.257c-.122-.227-.253-.463-.393-.7A27.322,27.322,0,0,0,56.5,81.709,26.388,26.388,0,0,1,58.3,83.9a3.424,3.424,0,0,0,3.741,1.238,6.488,6.488,0,0,1,8.35,4.524,3.42,3.42,0,0,0,3.77,2.455,7.07,7.07,0,0,1,4.093.571,7.556,7.556,0,0,1,4.055,5.539h-16.2a1.333,1.333,0,0,0,0,2.666H87.89a.445.445,0,0,1,.444.444Z" transform="translate(0 0)"/>
      </g>
    </g>
  </g>
</svg>
