<svg xmlns="http://www.w3.org/2000/svg" xmlns:xlink="http://www.w3.org/1999/xlink" width="1030" height="338.054" viewBox="0 0 1030 338.054">
  <defs>
    <radialGradient id="radial-gradient" cx="0.5" cy="0.5" r="0.721" gradientTransform="translate(0 0)" gradientUnits="objectBoundingBox">
      <stop offset="0" stop-color="#e4fc8a"/>
      <stop offset="1" stop-color="#adce32"/>
    </radialGradient>
    <radialGradient id="radial-gradient-2" r="0.749" gradientTransform="translate(1 1) rotate(180)" xlink:href="#radial-gradient"/>
    <radialGradient id="radial-gradient-3" r="0.757" xlink:href="#radial-gradient"/>
  </defs>
  <g id="Grupo_1008378" data-name="Grupo 1008378" transform="translate(-285 -6151)">
    <g id="Trazado_713111" data-name="Trazado 713111" transform="translate(285 6151)" fill="url(#radial-gradient)">
      <path d="M 293.5 294.5 L 1.5 294.5 L 1.5 1.5 L 293.5 1.5 L 293.5 294.5 Z" stroke="none"/>
      <path d="M 3 3 L 3 293 L 292 293 L 292 3 L 3 3 M 0 0 L 295 0 L 295 296 L 0 296 L 0 0 Z" stroke="none" fill="#0b481e"/>
    </g>
    <path id="Trazado_713112" data-name="Trazado 713112" d="M0,0V295" transform="translate(580 6299.5) rotate(90)" fill="none" stroke="#0b481e" stroke-width="3"/>
    <path id="Trazado_713113" data-name="Trazado 713113" d="M0,0V295" transform="translate(580 6372.5) rotate(90)" fill="none" stroke="#0b481e" stroke-width="3"/>
    <path id="Trazado_713114" data-name="Trazado 713114" d="M0,0V295" transform="translate(580 6225.5) rotate(90)" fill="none" stroke="#0b481e" stroke-width="3"/>
    <path id="Trazado_713115" data-name="Trazado 713115" d="M0,0V295" transform="translate(359 6446.5) rotate(180)" fill="none" stroke="#0b481e" stroke-width="3"/>
    <path id="Trazado_713116" data-name="Trazado 713116" d="M0,0V295" transform="translate(432 6151.5)" fill="none" stroke="#0b481e" stroke-width="3"/>
    <path id="Trazado_713117" data-name="Trazado 713117" d="M0,0V295" transform="translate(505.5 6446.5) rotate(180)" fill="none" stroke="#0b481e" stroke-width="3"/>
    <g id="Trazado_713118" data-name="Trazado 713118" transform="translate(308 6176)" fill="#fff">
      <path d="M 13.5 25.5 C 10.29469013214111 25.5 7.281219959259033 24.25177955627441 5.01471996307373 21.98527908325195 C 2.748219966888428 19.71878051757812 1.5 16.7053108215332 1.5 13.5 C 1.5 10.29469013214111 2.748219966888428 7.281219959259033 5.01471996307373 5.01471996307373 C 7.281219959259033 2.748219966888428 10.29469013214111 1.5 13.5 1.5 C 16.7053108215332 1.5 19.71878051757812 2.748219966888428 21.98527908325195 5.01471996307373 C 24.25177955627441 7.281219959259033 25.5 10.29469013214111 25.5 13.5 C 25.5 16.7053108215332 24.25177955627441 19.71878051757812 21.98527908325195 21.98527908325195 C 19.71878051757812 24.25177955627441 16.7053108215332 25.5 13.5 25.5 Z" stroke="none"/>
      <path d="M 13.5 3 C 7.71027946472168 3 3 7.71027946472168 3 13.5 C 3 19.28972053527832 7.71027946472168 24 13.5 24 C 19.28972053527832 24 24 19.28972053527832 24 13.5 C 24 7.71027946472168 19.28972053527832 3 13.5 3 M 13.5 0 C 20.95584106445312 0 27 6.044160842895508 27 13.5 C 27 20.95584106445312 20.95584106445312 27 13.5 27 C 6.044160842895508 27 0 20.95584106445312 0 13.5 C 0 6.044160842895508 6.044160842895508 0 13.5 0 Z" stroke="none" fill="#0b481e"/>
    </g>
    <g id="Trazado_713119" data-name="Trazado 713119" transform="translate(380 6176)" fill="#fff">
      <path d="M 13.5 25.5 C 10.29469013214111 25.5 7.281219959259033 24.25177955627441 5.01471996307373 21.98527908325195 C 2.748219966888428 19.71878051757812 1.5 16.7053108215332 1.5 13.5 C 1.5 10.29469013214111 2.748219966888428 7.281219959259033 5.01471996307373 5.01471996307373 C 7.281219959259033 2.748219966888428 10.29469013214111 1.5 13.5 1.5 C 16.7053108215332 1.5 19.71878051757812 2.748219966888428 21.98527908325195 5.01471996307373 C 24.25177955627441 7.281219959259033 25.5 10.29469013214111 25.5 13.5 C 25.5 16.7053108215332 24.25177955627441 19.71878051757812 21.98527908325195 21.98527908325195 C 19.71878051757812 24.25177955627441 16.7053108215332 25.5 13.5 25.5 Z" stroke="none"/>
      <path d="M 13.5 3 C 7.71027946472168 3 3 7.71027946472168 3 13.5 C 3 19.28972053527832 7.71027946472168 24 13.5 24 C 19.28972053527832 24 24 19.28972053527832 24 13.5 C 24 7.71027946472168 19.28972053527832 3 13.5 3 M 13.5 0 C 20.95584106445312 0 27 6.044160842895508 27 13.5 C 27 20.95584106445312 20.95584106445312 27 13.5 27 C 6.044160842895508 27 0 20.95584106445312 0 13.5 C 0 6.044160842895508 6.044160842895508 0 13.5 0 Z" stroke="none" fill="#0b481e"/>
    </g>
    <g id="Trazado_713120" data-name="Trazado 713120" transform="translate(455 6176)" fill="#fff">
      <path d="M 13.5 25.5 C 10.29469013214111 25.5 7.281219959259033 24.25177955627441 5.01471996307373 21.98527908325195 C 2.748219966888428 19.71878051757812 1.5 16.7053108215332 1.5 13.5 C 1.5 10.29469013214111 2.748219966888428 7.281219959259033 5.01471996307373 5.01471996307373 C 7.281219959259033 2.748219966888428 10.29469013214111 1.5 13.5 1.5 C 16.7053108215332 1.5 19.71878051757812 2.748219966888428 21.98527908325195 5.01471996307373 C 24.25177955627441 7.281219959259033 25.5 10.29469013214111 25.5 13.5 C 25.5 16.7053108215332 24.25177955627441 19.71878051757812 21.98527908325195 21.98527908325195 C 19.71878051757812 24.25177955627441 16.7053108215332 25.5 13.5 25.5 Z" stroke="none"/>
      <path d="M 13.5 3 C 7.71027946472168 3 3 7.71027946472168 3 13.5 C 3 19.28972053527832 7.71027946472168 24 13.5 24 C 19.28972053527832 24 24 19.28972053527832 24 13.5 C 24 7.71027946472168 19.28972053527832 3 13.5 3 M 13.5 0 C 20.95584106445312 0 27 6.044160842895508 27 13.5 C 27 20.95584106445312 20.95584106445312 27 13.5 27 C 6.044160842895508 27 0 20.95584106445312 0 13.5 C 0 6.044160842895508 6.044160842895508 0 13.5 0 Z" stroke="none" fill="#0b481e"/>
    </g>
    <g id="Trazado_713121" data-name="Trazado 713121" transform="translate(529 6176)" fill="#fff">
      <path d="M 13.5 25.5 C 10.29469013214111 25.5 7.281219959259033 24.25177955627441 5.01471996307373 21.98527908325195 C 2.748219966888428 19.71878051757812 1.5 16.7053108215332 1.5 13.5 C 1.5 10.29469013214111 2.748219966888428 7.281219959259033 5.01471996307373 5.01471996307373 C 7.281219959259033 2.748219966888428 10.29469013214111 1.5 13.5 1.5 C 16.7053108215332 1.5 19.71878051757812 2.748219966888428 21.98527908325195 5.01471996307373 C 24.25177955627441 7.281219959259033 25.5 10.29469013214111 25.5 13.5 C 25.5 16.7053108215332 24.25177955627441 19.71878051757812 21.98527908325195 21.98527908325195 C 19.71878051757812 24.25177955627441 16.7053108215332 25.5 13.5 25.5 Z" stroke="none"/>
      <path d="M 13.5 3 C 7.71027946472168 3 3 7.71027946472168 3 13.5 C 3 19.28972053527832 7.71027946472168 24 13.5 24 C 19.28972053527832 24 24 19.28972053527832 24 13.5 C 24 7.71027946472168 19.28972053527832 3 13.5 3 M 13.5 0 C 20.95584106445312 0 27 6.044160842895508 27 13.5 C 27 20.95584106445312 20.95584106445312 27 13.5 27 C 6.044160842895508 27 0 20.95584106445312 0 13.5 C 0 6.044160842895508 6.044160842895508 0 13.5 0 Z" stroke="none" fill="#0b481e"/>
    </g>
    <g id="Trazado_713122" data-name="Trazado 713122" transform="translate(308 6323)" fill="#fff">
      <path d="M 13.5 25.5 C 10.29469013214111 25.5 7.281219959259033 24.25177955627441 5.01471996307373 21.98527908325195 C 2.748219966888428 19.71878051757812 1.5 16.7053108215332 1.5 13.5 C 1.5 10.29469013214111 2.748219966888428 7.281219959259033 5.01471996307373 5.01471996307373 C 7.281219959259033 2.748219966888428 10.29469013214111 1.5 13.5 1.5 C 16.7053108215332 1.5 19.71878051757812 2.748219966888428 21.98527908325195 5.01471996307373 C 24.25177955627441 7.281219959259033 25.5 10.29469013214111 25.5 13.5 C 25.5 16.7053108215332 24.25177955627441 19.71878051757812 21.98527908325195 21.98527908325195 C 19.71878051757812 24.25177955627441 16.7053108215332 25.5 13.5 25.5 Z" stroke="none"/>
      <path d="M 13.5 3 C 7.71027946472168 3 3 7.71027946472168 3 13.5 C 3 19.28972053527832 7.71027946472168 24 13.5 24 C 19.28972053527832 24 24 19.28972053527832 24 13.5 C 24 7.71027946472168 19.28972053527832 3 13.5 3 M 13.5 0 C 20.95584106445312 0 27 6.044160842895508 27 13.5 C 27 20.95584106445312 20.95584106445312 27 13.5 27 C 6.044160842895508 27 0 20.95584106445312 0 13.5 C 0 6.044160842895508 6.044160842895508 0 13.5 0 Z" stroke="none" fill="#0b481e"/>
    </g>
    <g id="Trazado_713123" data-name="Trazado 713123" transform="translate(380 6323)" fill="#fff">
      <path d="M 13.5 25.5 C 10.29469013214111 25.5 7.281219959259033 24.25177955627441 5.01471996307373 21.98527908325195 C 2.748219966888428 19.71878051757812 1.5 16.7053108215332 1.5 13.5 C 1.5 10.29469013214111 2.748219966888428 7.281219959259033 5.01471996307373 5.01471996307373 C 7.281219959259033 2.748219966888428 10.29469013214111 1.5 13.5 1.5 C 16.7053108215332 1.5 19.71878051757812 2.748219966888428 21.98527908325195 5.01471996307373 C 24.25177955627441 7.281219959259033 25.5 10.29469013214111 25.5 13.5 C 25.5 16.7053108215332 24.25177955627441 19.71878051757812 21.98527908325195 21.98527908325195 C 19.71878051757812 24.25177955627441 16.7053108215332 25.5 13.5 25.5 Z" stroke="none"/>
      <path d="M 13.5 3 C 7.71027946472168 3 3 7.71027946472168 3 13.5 C 3 19.28972053527832 7.71027946472168 24 13.5 24 C 19.28972053527832 24 24 19.28972053527832 24 13.5 C 24 7.71027946472168 19.28972053527832 3 13.5 3 M 13.5 0 C 20.95584106445312 0 27 6.044160842895508 27 13.5 C 27 20.95584106445312 20.95584106445312 27 13.5 27 C 6.044160842895508 27 0 20.95584106445312 0 13.5 C 0 6.044160842895508 6.044160842895508 0 13.5 0 Z" stroke="none" fill="#0b481e"/>
    </g>
    <g id="Trazado_713124" data-name="Trazado 713124" transform="translate(455 6323)" fill="#fff">
      <path d="M 13.5 25.5 C 10.29469013214111 25.5 7.281219959259033 24.25177955627441 5.01471996307373 21.98527908325195 C 2.748219966888428 19.71878051757812 1.5 16.7053108215332 1.5 13.5 C 1.5 10.29469013214111 2.748219966888428 7.281219959259033 5.01471996307373 5.01471996307373 C 7.281219959259033 2.748219966888428 10.29469013214111 1.5 13.5 1.5 C 16.7053108215332 1.5 19.71878051757812 2.748219966888428 21.98527908325195 5.01471996307373 C 24.25177955627441 7.281219959259033 25.5 10.29469013214111 25.5 13.5 C 25.5 16.7053108215332 24.25177955627441 19.71878051757812 21.98527908325195 21.98527908325195 C 19.71878051757812 24.25177955627441 16.7053108215332 25.5 13.5 25.5 Z" stroke="none"/>
      <path d="M 13.5 3 C 7.71027946472168 3 3 7.71027946472168 3 13.5 C 3 19.28972053527832 7.71027946472168 24 13.5 24 C 19.28972053527832 24 24 19.28972053527832 24 13.5 C 24 7.71027946472168 19.28972053527832 3 13.5 3 M 13.5 0 C 20.95584106445312 0 27 6.044160842895508 27 13.5 C 27 20.95584106445312 20.95584106445312 27 13.5 27 C 6.044160842895508 27 0 20.95584106445312 0 13.5 C 0 6.044160842895508 6.044160842895508 0 13.5 0 Z" stroke="none" fill="#0b481e"/>
    </g>
    <g id="Trazado_713125" data-name="Trazado 713125" transform="translate(529 6323)" fill="#fff">
      <path d="M 13.5 25.5 C 10.29469013214111 25.5 7.281219959259033 24.25177955627441 5.01471996307373 21.98527908325195 C 2.748219966888428 19.71878051757812 1.5 16.7053108215332 1.5 13.5 C 1.5 10.29469013214111 2.748219966888428 7.281219959259033 5.01471996307373 5.01471996307373 C 7.281219959259033 2.748219966888428 10.29469013214111 1.5 13.5 1.5 C 16.7053108215332 1.5 19.71878051757812 2.748219966888428 21.98527908325195 5.01471996307373 C 24.25177955627441 7.281219959259033 25.5 10.29469013214111 25.5 13.5 C 25.5 16.7053108215332 24.25177955627441 19.71878051757812 21.98527908325195 21.98527908325195 C 19.71878051757812 24.25177955627441 16.7053108215332 25.5 13.5 25.5 Z" stroke="none"/>
      <path d="M 13.5 3 C 7.71027946472168 3 3 7.71027946472168 3 13.5 C 3 19.28972053527832 7.71027946472168 24 13.5 24 C 19.28972053527832 24 24 19.28972053527832 24 13.5 C 24 7.71027946472168 19.28972053527832 3 13.5 3 M 13.5 0 C 20.95584106445312 0 27 6.044160842895508 27 13.5 C 27 20.95584106445312 20.95584106445312 27 13.5 27 C 6.044160842895508 27 0 20.95584106445312 0 13.5 C 0 6.044160842895508 6.044160842895508 0 13.5 0 Z" stroke="none" fill="#0b481e"/>
    </g>
    <g id="Trazado_713126" data-name="Trazado 713126" transform="translate(308 6251)" fill="#fff">
      <path d="M 13.5 25.5 C 10.29469013214111 25.5 7.281219959259033 24.25177955627441 5.01471996307373 21.98527908325195 C 2.748219966888428 19.71878051757812 1.5 16.7053108215332 1.5 13.5 C 1.5 10.29469013214111 2.748219966888428 7.281219959259033 5.01471996307373 5.01471996307373 C 7.281219959259033 2.748219966888428 10.29469013214111 1.5 13.5 1.5 C 16.7053108215332 1.5 19.71878051757812 2.748219966888428 21.98527908325195 5.01471996307373 C 24.25177955627441 7.281219959259033 25.5 10.29469013214111 25.5 13.5 C 25.5 16.7053108215332 24.25177955627441 19.71878051757812 21.98527908325195 21.98527908325195 C 19.71878051757812 24.25177955627441 16.7053108215332 25.5 13.5 25.5 Z" stroke="none"/>
      <path d="M 13.5 3 C 7.71027946472168 3 3 7.71027946472168 3 13.5 C 3 19.28972053527832 7.71027946472168 24 13.5 24 C 19.28972053527832 24 24 19.28972053527832 24 13.5 C 24 7.71027946472168 19.28972053527832 3 13.5 3 M 13.5 0 C 20.95584106445312 0 27 6.044160842895508 27 13.5 C 27 20.95584106445312 20.95584106445312 27 13.5 27 C 6.044160842895508 27 0 20.95584106445312 0 13.5 C 0 6.044160842895508 6.044160842895508 0 13.5 0 Z" stroke="none" fill="#0b481e"/>
    </g>
    <g id="Trazado_713127" data-name="Trazado 713127" transform="translate(380 6251)" fill="#fff">
      <path d="M 13.5 25.5 C 10.29469013214111 25.5 7.281219959259033 24.25177955627441 5.01471996307373 21.98527908325195 C 2.748219966888428 19.71878051757812 1.5 16.7053108215332 1.5 13.5 C 1.5 10.29469013214111 2.748219966888428 7.281219959259033 5.01471996307373 5.01471996307373 C 7.281219959259033 2.748219966888428 10.29469013214111 1.5 13.5 1.5 C 16.7053108215332 1.5 19.71878051757812 2.748219966888428 21.98527908325195 5.01471996307373 C 24.25177955627441 7.281219959259033 25.5 10.29469013214111 25.5 13.5 C 25.5 16.7053108215332 24.25177955627441 19.71878051757812 21.98527908325195 21.98527908325195 C 19.71878051757812 24.25177955627441 16.7053108215332 25.5 13.5 25.5 Z" stroke="none"/>
      <path d="M 13.5 3 C 7.71027946472168 3 3 7.71027946472168 3 13.5 C 3 19.28972053527832 7.71027946472168 24 13.5 24 C 19.28972053527832 24 24 19.28972053527832 24 13.5 C 24 7.71027946472168 19.28972053527832 3 13.5 3 M 13.5 0 C 20.95584106445312 0 27 6.044160842895508 27 13.5 C 27 20.95584106445312 20.95584106445312 27 13.5 27 C 6.044160842895508 27 0 20.95584106445312 0 13.5 C 0 6.044160842895508 6.044160842895508 0 13.5 0 Z" stroke="none" fill="#0b481e"/>
    </g>
    <g id="Trazado_713128" data-name="Trazado 713128" transform="translate(455 6251)" fill="#fff">
      <path d="M 13.5 25.5 C 10.29469013214111 25.5 7.281219959259033 24.25177955627441 5.01471996307373 21.98527908325195 C 2.748219966888428 19.71878051757812 1.5 16.7053108215332 1.5 13.5 C 1.5 10.29469013214111 2.748219966888428 7.281219959259033 5.01471996307373 5.01471996307373 C 7.281219959259033 2.748219966888428 10.29469013214111 1.5 13.5 1.5 C 16.7053108215332 1.5 19.71878051757812 2.748219966888428 21.98527908325195 5.01471996307373 C 24.25177955627441 7.281219959259033 25.5 10.29469013214111 25.5 13.5 C 25.5 16.7053108215332 24.25177955627441 19.71878051757812 21.98527908325195 21.98527908325195 C 19.71878051757812 24.25177955627441 16.7053108215332 25.5 13.5 25.5 Z" stroke="none"/>
      <path d="M 13.5 3 C 7.71027946472168 3 3 7.71027946472168 3 13.5 C 3 19.28972053527832 7.71027946472168 24 13.5 24 C 19.28972053527832 24 24 19.28972053527832 24 13.5 C 24 7.71027946472168 19.28972053527832 3 13.5 3 M 13.5 0 C 20.95584106445312 0 27 6.044160842895508 27 13.5 C 27 20.95584106445312 20.95584106445312 27 13.5 27 C 6.044160842895508 27 0 20.95584106445312 0 13.5 C 0 6.044160842895508 6.044160842895508 0 13.5 0 Z" stroke="none" fill="#0b481e"/>
    </g>
    <g id="Trazado_713129" data-name="Trazado 713129" transform="translate(529 6251)" fill="#fff">
      <path d="M 13.5 25.5 C 10.29469013214111 25.5 7.281219959259033 24.25177955627441 5.01471996307373 21.98527908325195 C 2.748219966888428 19.71878051757812 1.5 16.7053108215332 1.5 13.5 C 1.5 10.29469013214111 2.748219966888428 7.281219959259033 5.01471996307373 5.01471996307373 C 7.281219959259033 2.748219966888428 10.29469013214111 1.5 13.5 1.5 C 16.7053108215332 1.5 19.71878051757812 2.748219966888428 21.98527908325195 5.01471996307373 C 24.25177955627441 7.281219959259033 25.5 10.29469013214111 25.5 13.5 C 25.5 16.7053108215332 24.25177955627441 19.71878051757812 21.98527908325195 21.98527908325195 C 19.71878051757812 24.25177955627441 16.7053108215332 25.5 13.5 25.5 Z" stroke="none"/>
      <path d="M 13.5 3 C 7.71027946472168 3 3 7.71027946472168 3 13.5 C 3 19.28972053527832 7.71027946472168 24 13.5 24 C 19.28972053527832 24 24 19.28972053527832 24 13.5 C 24 7.71027946472168 19.28972053527832 3 13.5 3 M 13.5 0 C 20.95584106445312 0 27 6.044160842895508 27 13.5 C 27 20.95584106445312 20.95584106445312 27 13.5 27 C 6.044160842895508 27 0 20.95584106445312 0 13.5 C 0 6.044160842895508 6.044160842895508 0 13.5 0 Z" stroke="none" fill="#0b481e"/>
    </g>
    <g id="Trazado_713130" data-name="Trazado 713130" transform="translate(308 6398)" fill="#fff">
      <path d="M 13.5 25.5 C 10.29469013214111 25.5 7.281219959259033 24.25177955627441 5.01471996307373 21.98527908325195 C 2.748219966888428 19.71878051757812 1.5 16.7053108215332 1.5 13.5 C 1.5 10.29469013214111 2.748219966888428 7.281219959259033 5.01471996307373 5.01471996307373 C 7.281219959259033 2.748219966888428 10.29469013214111 1.5 13.5 1.5 C 16.7053108215332 1.5 19.71878051757812 2.748219966888428 21.98527908325195 5.01471996307373 C 24.25177955627441 7.281219959259033 25.5 10.29469013214111 25.5 13.5 C 25.5 16.7053108215332 24.25177955627441 19.71878051757812 21.98527908325195 21.98527908325195 C 19.71878051757812 24.25177955627441 16.7053108215332 25.5 13.5 25.5 Z" stroke="none"/>
      <path d="M 13.5 3 C 7.71027946472168 3 3 7.71027946472168 3 13.5 C 3 19.28972053527832 7.71027946472168 24 13.5 24 C 19.28972053527832 24 24 19.28972053527832 24 13.5 C 24 7.71027946472168 19.28972053527832 3 13.5 3 M 13.5 0 C 20.95584106445312 0 27 6.044160842895508 27 13.5 C 27 20.95584106445312 20.95584106445312 27 13.5 27 C 6.044160842895508 27 0 20.95584106445312 0 13.5 C 0 6.044160842895508 6.044160842895508 0 13.5 0 Z" stroke="none" fill="#0b481e"/>
    </g>
    <g id="Trazado_713131" data-name="Trazado 713131" transform="translate(380 6398)" fill="#fff">
      <path d="M 13.5 25.5 C 10.29469013214111 25.5 7.281219959259033 24.25177955627441 5.01471996307373 21.98527908325195 C 2.748219966888428 19.71878051757812 1.5 16.7053108215332 1.5 13.5 C 1.5 10.29469013214111 2.748219966888428 7.281219959259033 5.01471996307373 5.01471996307373 C 7.281219959259033 2.748219966888428 10.29469013214111 1.5 13.5 1.5 C 16.7053108215332 1.5 19.71878051757812 2.748219966888428 21.98527908325195 5.01471996307373 C 24.25177955627441 7.281219959259033 25.5 10.29469013214111 25.5 13.5 C 25.5 16.7053108215332 24.25177955627441 19.71878051757812 21.98527908325195 21.98527908325195 C 19.71878051757812 24.25177955627441 16.7053108215332 25.5 13.5 25.5 Z" stroke="none"/>
      <path d="M 13.5 3 C 7.71027946472168 3 3 7.71027946472168 3 13.5 C 3 19.28972053527832 7.71027946472168 24 13.5 24 C 19.28972053527832 24 24 19.28972053527832 24 13.5 C 24 7.71027946472168 19.28972053527832 3 13.5 3 M 13.5 0 C 20.95584106445312 0 27 6.044160842895508 27 13.5 C 27 20.95584106445312 20.95584106445312 27 13.5 27 C 6.044160842895508 27 0 20.95584106445312 0 13.5 C 0 6.044160842895508 6.044160842895508 0 13.5 0 Z" stroke="none" fill="#0b481e"/>
    </g>
    <g id="Trazado_713132" data-name="Trazado 713132" transform="translate(455 6398)" fill="#fff">
      <path d="M 13.5 25.5 C 10.29469013214111 25.5 7.281219959259033 24.25177955627441 5.01471996307373 21.98527908325195 C 2.748219966888428 19.71878051757812 1.5 16.7053108215332 1.5 13.5 C 1.5 10.29469013214111 2.748219966888428 7.281219959259033 5.01471996307373 5.01471996307373 C 7.281219959259033 2.748219966888428 10.29469013214111 1.5 13.5 1.5 C 16.7053108215332 1.5 19.71878051757812 2.748219966888428 21.98527908325195 5.01471996307373 C 24.25177955627441 7.281219959259033 25.5 10.29469013214111 25.5 13.5 C 25.5 16.7053108215332 24.25177955627441 19.71878051757812 21.98527908325195 21.98527908325195 C 19.71878051757812 24.25177955627441 16.7053108215332 25.5 13.5 25.5 Z" stroke="none"/>
      <path d="M 13.5 3 C 7.71027946472168 3 3 7.71027946472168 3 13.5 C 3 19.28972053527832 7.71027946472168 24 13.5 24 C 19.28972053527832 24 24 19.28972053527832 24 13.5 C 24 7.71027946472168 19.28972053527832 3 13.5 3 M 13.5 0 C 20.95584106445312 0 27 6.044160842895508 27 13.5 C 27 20.95584106445312 20.95584106445312 27 13.5 27 C 6.044160842895508 27 0 20.95584106445312 0 13.5 C 0 6.044160842895508 6.044160842895508 0 13.5 0 Z" stroke="none" fill="#0b481e"/>
    </g>
    <g id="Trazado_713133" data-name="Trazado 713133" transform="translate(529 6398)" fill="#fff">
      <path d="M 13.5 25.5 C 10.29469013214111 25.5 7.281219959259033 24.25177955627441 5.01471996307373 21.98527908325195 C 2.748219966888428 19.71878051757812 1.5 16.7053108215332 1.5 13.5 C 1.5 10.29469013214111 2.748219966888428 7.281219959259033 5.01471996307373 5.01471996307373 C 7.281219959259033 2.748219966888428 10.29469013214111 1.5 13.5 1.5 C 16.7053108215332 1.5 19.71878051757812 2.748219966888428 21.98527908325195 5.01471996307373 C 24.25177955627441 7.281219959259033 25.5 10.29469013214111 25.5 13.5 C 25.5 16.7053108215332 24.25177955627441 19.71878051757812 21.98527908325195 21.98527908325195 C 19.71878051757812 24.25177955627441 16.7053108215332 25.5 13.5 25.5 Z" stroke="none"/>
      <path d="M 13.5 3 C 7.71027946472168 3 3 7.71027946472168 3 13.5 C 3 19.28972053527832 7.71027946472168 24 13.5 24 C 19.28972053527832 24 24 19.28972053527832 24 13.5 C 24 7.71027946472168 19.28972053527832 3 13.5 3 M 13.5 0 C 20.95584106445312 0 27 6.044160842895508 27 13.5 C 27 20.95584106445312 20.95584106445312 27 13.5 27 C 6.044160842895508 27 0 20.95584106445312 0 13.5 C 0 6.044160842895508 6.044160842895508 0 13.5 0 Z" stroke="none" fill="#0b481e"/>
    </g>
    <g id="Trazado_713134" data-name="Trazado 713134" transform="translate(1020 6151)" fill="url(#radial-gradient-2)">
      <path d="M 293.5 294.5 L 1.5 294.5 L 1.5 1.5 L 293.5 1.5 L 293.5 294.5 Z" stroke="none"/>
      <path d="M 3 3 L 3 293 L 292 293 L 292 3 L 3 3 M 0 0 L 295 0 L 295 296 L 0 296 L 0 0 Z" stroke="none" fill="#0b481e"/>
    </g>
    <path id="Trazado_713135" data-name="Trazado 713135" d="M244,0,0,244" transform="translate(1046 6178)" fill="none" stroke="#0b481e" stroke-width="3"/>
    <path id="Trazado_713136" data-name="Trazado 713136" d="M244,244,0,0" transform="translate(1046 6178)" fill="none" stroke="#0b481e" stroke-width="3"/>
    <g id="Trazado_713137" data-name="Trazado 713137" transform="translate(1055 6397)" fill="#fff">
      <path d="M 13.5 25.5 C 10.29469013214111 25.5 7.281219959259033 24.25177955627441 5.01471996307373 21.98527908325195 C 2.748219966888428 19.71878051757812 1.5 16.7053108215332 1.5 13.5 C 1.5 10.29469013214111 2.748219966888428 7.281219959259033 5.01471996307373 5.01471996307373 C 7.281219959259033 2.748219966888428 10.29469013214111 1.5 13.5 1.5 C 16.7053108215332 1.5 19.71878051757812 2.748219966888428 21.98527908325195 5.01471996307373 C 24.25177955627441 7.281219959259033 25.5 10.29469013214111 25.5 13.5 C 25.5 16.7053108215332 24.25177955627441 19.71878051757812 21.98527908325195 21.98527908325195 C 19.71878051757812 24.25177955627441 16.7053108215332 25.5 13.5 25.5 Z" stroke="none"/>
      <path d="M 13.5 3 C 7.71027946472168 3 3 7.71027946472168 3 13.5 C 3 19.28972053527832 7.71027946472168 24 13.5 24 C 19.28972053527832 24 24 19.28972053527832 24 13.5 C 24 7.71027946472168 19.28972053527832 3 13.5 3 M 13.5 0 C 20.95584106445312 0 27 6.044160842895508 27 13.5 C 27 20.95584106445312 20.95584106445312 27 13.5 27 C 6.044160842895508 27 0 20.95584106445312 0 13.5 C 0 6.044160842895508 6.044160842895508 0 13.5 0 Z" stroke="none" fill="#0b481e"/>
    </g>
    <g id="Trazado_713138" data-name="Trazado 713138" transform="translate(1064 6168)" fill="#fff">
      <path d="M 9 16.5 C 4.864490032196045 16.5 1.5 13.13551044464111 1.5 9 C 1.5 4.864490032196045 4.864490032196045 1.5 9 1.5 C 13.13551044464111 1.5 16.5 4.864490032196045 16.5 9 C 16.5 13.13551044464111 13.13551044464111 16.5 9 16.5 Z" stroke="none"/>
      <path d="M 9 3 C 5.691590309143066 3 3 5.691590309143066 3 9 C 3 12.30841064453125 5.691590309143066 15 9 15 C 12.30841064453125 15 15 12.30841064453125 15 9 C 15 5.691590309143066 12.30841064453125 3 9 3 M 9 0 C 13.97056007385254 0 18 4.029439926147461 18 9 C 18 13.97056007385254 13.97056007385254 18 9 18 C 4.029439926147461 18 0 13.97056007385254 0 9 C 0 4.029439926147461 4.029439926147461 0 9 0 Z" stroke="none" fill="#0b481e"/>
    </g>
    <g id="Trazado_713139" data-name="Trazado 713139" transform="translate(1205 6275)" fill="#fff">
      <path d="M 9 16.5 C 4.864490032196045 16.5 1.5 13.13551044464111 1.5 9 C 1.5 4.864490032196045 4.864490032196045 1.5 9 1.5 C 13.13551044464111 1.5 16.5 4.864490032196045 16.5 9 C 16.5 13.13551044464111 13.13551044464111 16.5 9 16.5 Z" stroke="none"/>
      <path d="M 9 3 C 5.691590309143066 3 3 5.691590309143066 3 9 C 3 12.30841064453125 5.691590309143066 15 9 15 C 12.30841064453125 15 15 12.30841064453125 15 9 C 15 5.691590309143066 12.30841064453125 3 9 3 M 9 0 C 13.97056007385254 0 18 4.029439926147461 18 9 C 18 13.97056007385254 13.97056007385254 18 9 18 C 4.029439926147461 18 0 13.97056007385254 0 9 C 0 4.029439926147461 4.029439926147461 0 9 0 Z" stroke="none" fill="#0b481e"/>
    </g>
    <g id="Trazado_713140" data-name="Trazado 713140" transform="translate(1205 6312)" fill="#fff">
      <path d="M 9 16.5 C 4.864490032196045 16.5 1.5 13.13551044464111 1.5 9 C 1.5 4.864490032196045 4.864490032196045 1.5 9 1.5 C 13.13551044464111 1.5 16.5 4.864490032196045 16.5 9 C 16.5 13.13551044464111 13.13551044464111 16.5 9 16.5 Z" stroke="none"/>
      <path d="M 9 3 C 5.691590309143066 3 3 5.691590309143066 3 9 C 3 12.30841064453125 5.691590309143066 15 9 15 C 12.30841064453125 15 15 12.30841064453125 15 9 C 15 5.691590309143066 12.30841064453125 3 9 3 M 9 0 C 13.97056007385254 0 18 4.029439926147461 18 9 C 18 13.97056007385254 13.97056007385254 18 9 18 C 4.029439926147461 18 0 13.97056007385254 0 9 C 0 4.029439926147461 4.029439926147461 0 9 0 Z" stroke="none" fill="#0b481e"/>
    </g>
    <g id="Trazado_713141" data-name="Trazado 713141" transform="translate(1154 6249)" fill="#fff">
      <path d="M 13.5 25.5 C 10.29469013214111 25.5 7.281219959259033 24.25177955627441 5.01471996307373 21.98527908325195 C 2.748219966888428 19.71878051757812 1.5 16.7053108215332 1.5 13.5 C 1.5 10.29469013214111 2.748219966888428 7.281219959259033 5.01471996307373 5.01471996307373 C 7.281219959259033 2.748219966888428 10.29469013214111 1.5 13.5 1.5 C 16.7053108215332 1.5 19.71878051757812 2.748219966888428 21.98527908325195 5.01471996307373 C 24.25177955627441 7.281219959259033 25.5 10.29469013214111 25.5 13.5 C 25.5 16.7053108215332 24.25177955627441 19.71878051757812 21.98527908325195 21.98527908325195 C 19.71878051757812 24.25177955627441 16.7053108215332 25.5 13.5 25.5 Z" stroke="none"/>
      <path d="M 13.5 3 C 7.71027946472168 3 3 7.71027946472168 3 13.5 C 3 19.28972053527832 7.71027946472168 24 13.5 24 C 19.28972053527832 24 24 19.28972053527832 24 13.5 C 24 7.71027946472168 19.28972053527832 3 13.5 3 M 13.5 0 C 20.95584106445312 0 27 6.044160842895508 27 13.5 C 27 20.95584106445312 20.95584106445312 27 13.5 27 C 6.044160842895508 27 0 20.95584106445312 0 13.5 C 0 6.044160842895508 6.044160842895508 0 13.5 0 Z" stroke="none" fill="#0b481e"/>
    </g>
    <g id="Trazado_713142" data-name="Trazado 713142" transform="translate(1277 6198)" fill="#fff">
      <path d="M 13.5 25.5 C 10.29469013214111 25.5 7.281219959259033 24.25177955627441 5.01471996307373 21.98527908325195 C 2.748219966888428 19.71878051757812 1.5 16.7053108215332 1.5 13.5 C 1.5 10.29469013214111 2.748219966888428 7.281219959259033 5.01471996307373 5.01471996307373 C 7.281219959259033 2.748219966888428 10.29469013214111 1.5 13.5 1.5 C 16.7053108215332 1.5 19.71878051757812 2.748219966888428 21.98527908325195 5.01471996307373 C 24.25177955627441 7.281219959259033 25.5 10.29469013214111 25.5 13.5 C 25.5 16.7053108215332 24.25177955627441 19.71878051757812 21.98527908325195 21.98527908325195 C 19.71878051757812 24.25177955627441 16.7053108215332 25.5 13.5 25.5 Z" stroke="none"/>
      <path d="M 13.5 3 C 7.71027946472168 3 3 7.71027946472168 3 13.5 C 3 19.28972053527832 7.71027946472168 24 13.5 24 C 19.28972053527832 24 24 19.28972053527832 24 13.5 C 24 7.71027946472168 19.28972053527832 3 13.5 3 M 13.5 0 C 20.95584106445312 0 27 6.044160842895508 27 13.5 C 27 20.95584106445312 20.95584106445312 27 13.5 27 C 6.044160842895508 27 0 20.95584106445312 0 13.5 C 0 6.044160842895508 6.044160842895508 0 13.5 0 Z" stroke="none" fill="#0b481e"/>
    </g>
    <g id="Trazado_713143" data-name="Trazado 713143" transform="translate(1277 6379)" fill="#fff">
      <path d="M 13.5 25.5 C 10.29469013214111 25.5 7.281219959259033 24.25177955627441 5.01471996307373 21.98527908325195 C 2.748219966888428 19.71878051757812 1.5 16.7053108215332 1.5 13.5 C 1.5 10.29469013214111 2.748219966888428 7.281219959259033 5.01471996307373 5.01471996307373 C 7.281219959259033 2.748219966888428 10.29469013214111 1.5 13.5 1.5 C 16.7053108215332 1.5 19.71878051757812 2.748219966888428 21.98527908325195 5.01471996307373 C 24.25177955627441 7.281219959259033 25.5 10.29469013214111 25.5 13.5 C 25.5 16.7053108215332 24.25177955627441 19.71878051757812 21.98527908325195 21.98527908325195 C 19.71878051757812 24.25177955627441 16.7053108215332 25.5 13.5 25.5 Z" stroke="none"/>
      <path d="M 13.5 3 C 7.71027946472168 3 3 7.71027946472168 3 13.5 C 3 19.28972053527832 7.71027946472168 24 13.5 24 C 19.28972053527832 24 24 19.28972053527832 24 13.5 C 24 7.71027946472168 19.28972053527832 3 13.5 3 M 13.5 0 C 20.95584106445312 0 27 6.044160842895508 27 13.5 C 27 20.95584106445312 20.95584106445312 27 13.5 27 C 6.044160842895508 27 0 20.95584106445312 0 13.5 C 0 6.044160842895508 6.044160842895508 0 13.5 0 Z" stroke="none" fill="#0b481e"/>
    </g>
    <g id="Trazado_713144" data-name="Trazado 713144" transform="translate(1154 6321)" fill="#fff">
      <path d="M 13.5 25.5 C 10.29469013214111 25.5 7.281219959259033 24.25177955627441 5.01471996307373 21.98527908325195 C 2.748219966888428 19.71878051757812 1.5 16.7053108215332 1.5 13.5 C 1.5 10.29469013214111 2.748219966888428 7.281219959259033 5.01471996307373 5.01471996307373 C 7.281219959259033 2.748219966888428 10.29469013214111 1.5 13.5 1.5 C 16.7053108215332 1.5 19.71878051757812 2.748219966888428 21.98527908325195 5.01471996307373 C 24.25177955627441 7.281219959259033 25.5 10.29469013214111 25.5 13.5 C 25.5 16.7053108215332 24.25177955627441 19.71878051757812 21.98527908325195 21.98527908325195 C 19.71878051757812 24.25177955627441 16.7053108215332 25.5 13.5 25.5 Z" stroke="none"/>
      <path d="M 13.5 3 C 7.71027946472168 3 3 7.71027946472168 3 13.5 C 3 19.28972053527832 7.71027946472168 24 13.5 24 C 19.28972053527832 24 24 19.28972053527832 24 13.5 C 24 7.71027946472168 19.28972053527832 3 13.5 3 M 13.5 0 C 20.95584106445312 0 27 6.044160842895508 27 13.5 C 27 20.95584106445312 20.95584106445312 27 13.5 27 C 6.044160842895508 27 0 20.95584106445312 0 13.5 C 0 6.044160842895508 6.044160842895508 0 13.5 0 Z" stroke="none" fill="#0b481e"/>
    </g>
    <g id="Trazado_713145" data-name="Trazado 713145" transform="translate(653 6151)" fill="url(#radial-gradient-3)">
      <path d="M 293.5 294.5 L 1.5 294.5 L 1.5 1.5 L 293.5 1.5 L 293.5 294.5 Z" stroke="none"/>
      <path d="M 3 3 L 3 293 L 292 293 L 292 3 L 3 3 M 0 0 L 295 0 L 295 296 L 0 296 L 0 0 Z" stroke="none" fill="#0b481e"/>
    </g>
    <g id="Trazado_713146" data-name="Trazado 713146" transform="translate(690 6256.5)" fill="#fff">
      <path d="M 12.5 23.75 C 9.495019912719727 23.75 6.6698899269104 22.57979965209961 4.545050144195557 20.4549503326416 C 2.420200109481812 18.33011054992676 1.25 15.50498008728027 1.25 12.5 C 1.25 9.495019912719727 2.420200109481812 6.6698899269104 4.545050144195557 4.545050144195557 C 6.6698899269104 2.420200109481812 9.495019912719727 1.25 12.5 1.25 C 15.50498008728027 1.25 18.33011054992676 2.420200109481812 20.4549503326416 4.545050144195557 C 22.57979965209961 6.6698899269104 23.75 9.495019912719727 23.75 12.5 C 23.75 15.50498008728027 22.57979965209961 18.33011054992676 20.4549503326416 20.4549503326416 C 18.33011054992676 22.57979965209961 15.50498008728027 23.75 12.5 23.75 Z" stroke="none"/>
      <path d="M 12.5 2.5 C 6.985979080200195 2.5 2.5 6.985979080200195 2.5 12.5 C 2.5 18.01401901245117 6.985979080200195 22.5 12.5 22.5 C 18.01401901245117 22.5 22.5 18.01401901245117 22.5 12.5 C 22.5 6.985979080200195 18.01401901245117 2.5 12.5 2.5 M 12.5 0 C 19.40356063842773 0 25 5.596439361572266 25 12.5 C 25 19.40356063842773 19.40356063842773 25 12.5 25 C 5.596439361572266 25 0 19.40356063842773 0 12.5 C 0 5.596439361572266 5.596439361572266 0 12.5 0 Z" stroke="none" fill="#0b481e"/>
    </g>
    <g id="Trazado_713147" data-name="Trazado 713147" transform="translate(914.5 6352.5) rotate(180)" fill="#fff">
      <path d="M 12.5 23.75 C 9.495019912719727 23.75 6.6698899269104 22.57979965209961 4.545050144195557 20.4549503326416 C 2.420200109481812 18.33011054992676 1.25 15.50498008728027 1.25 12.5 C 1.25 9.495019912719727 2.420200109481812 6.6698899269104 4.545050144195557 4.545050144195557 C 6.6698899269104 2.420200109481812 9.495019912719727 1.25 12.5 1.25 C 15.50498008728027 1.25 18.33011054992676 2.420200109481812 20.4549503326416 4.545050144195557 C 22.57979965209961 6.6698899269104 23.75 9.495019912719727 23.75 12.5 C 23.75 15.50498008728027 22.57979965209961 18.33011054992676 20.4549503326416 20.4549503326416 C 18.33011054992676 22.57979965209961 15.50498008728027 23.75 12.5 23.75 Z" stroke="none"/>
      <path d="M 12.5 2.5 C 6.985979080200195 2.5 2.5 6.985979080200195 2.5 12.5 C 2.5 18.01401901245117 6.985979080200195 22.5 12.5 22.5 C 18.01401901245117 22.5 22.5 18.01401901245117 22.5 12.5 C 22.5 6.985979080200195 18.01401901245117 2.5 12.5 2.5 M 12.5 0 C 19.40356063842773 0 25 5.596439361572266 25 12.5 C 25 19.40356063842773 19.40356063842773 25 12.5 25 C 5.596439361572266 25 0 19.40356063842773 0 12.5 C 0 5.596439361572266 5.596439361572266 0 12.5 0 Z" stroke="none" fill="#0b481e"/>
    </g>
    <g id="Trazado_713148" data-name="Trazado 713148" transform="translate(834 6256.5)" fill="#fff">
      <path d="M 12.5 23.75 C 9.495019912719727 23.75 6.6698899269104 22.57979965209961 4.545050144195557 20.4549503326416 C 2.420200109481812 18.33011054992676 1.25 15.50498008728027 1.25 12.5 C 1.25 9.495019912719727 2.420200109481812 6.6698899269104 4.545050144195557 4.545050144195557 C 6.6698899269104 2.420200109481812 9.495019912719727 1.25 12.5 1.25 C 15.50498008728027 1.25 18.33011054992676 2.420200109481812 20.4549503326416 4.545050144195557 C 22.57979965209961 6.6698899269104 23.75 9.495019912719727 23.75 12.5 C 23.75 15.50498008728027 22.57979965209961 18.33011054992676 20.4549503326416 20.4549503326416 C 18.33011054992676 22.57979965209961 15.50498008728027 23.75 12.5 23.75 Z" stroke="none"/>
      <path d="M 12.5 2.5 C 6.985979080200195 2.5 2.5 6.985979080200195 2.5 12.5 C 2.5 18.01401901245117 6.985979080200195 22.5 12.5 22.5 C 18.01401901245117 22.5 22.5 18.01401901245117 22.5 12.5 C 22.5 6.985979080200195 18.01401901245117 2.5 12.5 2.5 M 12.5 0 C 19.40356063842773 0 25 5.596439361572266 25 12.5 C 25 19.40356063842773 19.40356063842773 25 12.5 25 C 5.596439361572266 25 0 19.40356063842773 0 12.5 C 0 5.596439361572266 5.596439361572266 0 12.5 0 Z" stroke="none" fill="#0b481e"/>
    </g>
    <g id="Trazado_713149" data-name="Trazado 713149" transform="translate(770.5 6352.5) rotate(180)" fill="#fff">
      <path d="M 12.5 23.75 C 9.495019912719727 23.75 6.6698899269104 22.57979965209961 4.545050144195557 20.4549503326416 C 2.420200109481812 18.33011054992676 1.25 15.50498008728027 1.25 12.5 C 1.25 9.495019912719727 2.420200109481812 6.6698899269104 4.545050144195557 4.545050144195557 C 6.6698899269104 2.420200109481812 9.495019912719727 1.25 12.5 1.25 C 15.50498008728027 1.25 18.33011054992676 2.420200109481812 20.4549503326416 4.545050144195557 C 22.57979965209961 6.6698899269104 23.75 9.495019912719727 23.75 12.5 C 23.75 15.50498008728027 22.57979965209961 18.33011054992676 20.4549503326416 20.4549503326416 C 18.33011054992676 22.57979965209961 15.50498008728027 23.75 12.5 23.75 Z" stroke="none"/>
      <path d="M 12.5 2.5 C 6.985979080200195 2.5 2.5 6.985979080200195 2.5 12.5 C 2.5 18.01401901245117 6.985979080200195 22.5 12.5 22.5 C 18.01401901245117 22.5 22.5 18.01401901245117 22.5 12.5 C 22.5 6.985979080200195 18.01401901245117 2.5 12.5 2.5 M 12.5 0 C 19.40356063842773 0 25 5.596439361572266 25 12.5 C 25 19.40356063842773 19.40356063842773 25 12.5 25 C 5.596439361572266 25 0 19.40356063842773 0 12.5 C 0 5.596439361572266 5.596439361572266 0 12.5 0 Z" stroke="none" fill="#0b481e"/>
    </g>
    <g id="Trazado_713150" data-name="Trazado 713150" transform="translate(744 6209.5)" fill="#fff">
      <path d="M 12 23.75 C 6.07243013381958 23.75 1.25 18.70326995849609 1.25 12.5 C 1.25 6.296730041503906 6.07243013381958 1.25 12 1.25 C 17.92757034301758 1.25 22.75 6.296730041503906 22.75 12.5 C 22.75 18.70326995849609 17.92757034301758 23.75 12 23.75 Z" stroke="none"/>
      <path d="M 12 2.5 C 6.761680603027344 2.5 2.5 6.985979080200195 2.5 12.5 C 2.5 18.01401901245117 6.761680603027344 22.5 12 22.5 C 17.23831939697266 22.5 21.5 18.01401901245117 21.5 12.5 C 21.5 6.985979080200195 17.23831939697266 2.5 12 2.5 M 12 0 C 18.62742042541504 0 24 5.596439361572266 24 12.5 C 24 19.40356063842773 18.62742042541504 25 12 25 C 5.372579574584961 25 0 19.40356063842773 0 12.5 C 0 5.596439361572266 5.372579574584961 0 12 0 Z" stroke="none" fill="#0b481e"/>
    </g>
    <g id="Trazado_713151" data-name="Trazado 713151" transform="translate(860.5 6399.5) rotate(180)" fill="#fff">
      <path d="M 12 23.75 C 6.07243013381958 23.75 1.25 18.70326995849609 1.25 12.5 C 1.25 6.296730041503906 6.07243013381958 1.25 12 1.25 C 17.92757034301758 1.25 22.75 6.296730041503906 22.75 12.5 C 22.75 18.70326995849609 17.92757034301758 23.75 12 23.75 Z" stroke="none"/>
      <path d="M 12 2.5 C 6.761680603027344 2.5 2.5 6.985979080200195 2.5 12.5 C 2.5 18.01401901245117 6.761680603027344 22.5 12 22.5 C 17.23831939697266 22.5 21.5 18.01401901245117 21.5 12.5 C 21.5 6.985979080200195 17.23831939697266 2.5 12 2.5 M 12 0 C 18.62742042541504 0 24 5.596439361572266 24 12.5 C 24 19.40356063842773 18.62742042541504 25 12 25 C 5.372579574584961 25 0 19.40356063842773 0 12.5 C 0 5.596439361572266 5.372579574584961 0 12 0 Z" stroke="none" fill="#0b481e"/>
    </g>
    <g id="Trazado_713152" data-name="Trazado 713152" transform="translate(888 6209.5)" fill="#fff">
      <path d="M 12 23.75 C 6.07243013381958 23.75 1.25 18.70326995849609 1.25 12.5 C 1.25 6.296730041503906 6.07243013381958 1.25 12 1.25 C 17.92757034301758 1.25 22.75 6.296730041503906 22.75 12.5 C 22.75 18.70326995849609 17.92757034301758 23.75 12 23.75 Z" stroke="none"/>
      <path d="M 12 2.5 C 6.761680603027344 2.5 2.5 6.985979080200195 2.5 12.5 C 2.5 18.01401901245117 6.761680603027344 22.5 12 22.5 C 17.23831939697266 22.5 21.5 18.01401901245117 21.5 12.5 C 21.5 6.985979080200195 17.23831939697266 2.5 12 2.5 M 12 0 C 18.62742042541504 0 24 5.596439361572266 24 12.5 C 24 19.40356063842773 18.62742042541504 25 12 25 C 5.372579574584961 25 0 19.40356063842773 0 12.5 C 0 5.596439361572266 5.372579574584961 0 12 0 Z" stroke="none" fill="#0b481e"/>
    </g>
    <g id="Trazado_713153" data-name="Trazado 713153" transform="translate(716.5 6399.5) rotate(180)" fill="#fff">
      <path d="M 12 23.75 C 6.07243013381958 23.75 1.25 18.70326995849609 1.25 12.5 C 1.25 6.296730041503906 6.07243013381958 1.25 12 1.25 C 17.92757034301758 1.25 22.75 6.296730041503906 22.75 12.5 C 22.75 18.70326995849609 17.92757034301758 23.75 12 23.75 Z" stroke="none"/>
      <path d="M 12 2.5 C 6.761680603027344 2.5 2.5 6.985979080200195 2.5 12.5 C 2.5 18.01401901245117 6.761680603027344 22.5 12 22.5 C 17.23831939697266 22.5 21.5 18.01401901245117 21.5 12.5 C 21.5 6.985979080200195 17.23831939697266 2.5 12 2.5 M 12 0 C 18.62742042541504 0 24 5.596439361572266 24 12.5 C 24 19.40356063842773 18.62742042541504 25 12 25 C 5.372579574584961 25 0 19.40356063842773 0 12.5 C 0 5.596439361572266 5.372579574584961 0 12 0 Z" stroke="none" fill="#0b481e"/>
    </g>
    <path id="Trazado_713154" data-name="Trazado 713154" d="M0,54,57,0" transform="translate(678.5 6203)" fill="none" stroke="#0b481e" stroke-width="3"/>
    <path id="Trazado_713155" data-name="Trazado 713155" d="M0,54,57,0" transform="translate(926 6406) rotate(180)" fill="none" stroke="#0b481e" stroke-width="3"/>
    <path id="Trazado_713156" data-name="Trazado 713156" d="M0,0,57,54" transform="matrix(-0.995, -0.105, 0.105, -0.995, 917.188, 6321)" fill="none" stroke="#0b481e" stroke-width="3"/>
    <path id="Trazado_713157" data-name="Trazado 713157" d="M0,0,57,54" transform="matrix(-0.995, -0.105, 0.105, -0.995, 736.386, 6343.05)" fill="none" stroke="#0b481e" stroke-width="3"/>
    <path id="Trazado_713158" data-name="Trazado 713158" d="M0,54,57,0" transform="translate(822.5 6203)" fill="none" stroke="#0b481e" stroke-width="3"/>
    <path id="Trazado_713159" data-name="Trazado 713159" d="M0,54,57,0" transform="translate(782 6406) rotate(180)" fill="none" stroke="#0b481e" stroke-width="3"/>
    <path id="Trazado_713160" data-name="Trazado 713160" d="M0,0H136" transform="translate(716.5 6424.5)" fill="none" stroke="#0b481e" stroke-width="3"/>
    <path id="Trazado_713161" data-name="Trazado 713161" d="M113.151,13.528l.019.056a4.228,4.228,0,0,1-1.317,3.386,5.371,5.371,0,0,1-3.739,1.225,5.179,5.179,0,0,1-3.924-1.563,5.608,5.608,0,0,1-1.494-4.04V9.91a5.711,5.711,0,0,1,1.457-4.04A4.966,4.966,0,0,1,107.974,4.3,5.7,5.7,0,0,1,111.833,5.5a4.152,4.152,0,0,1,1.354,3.4l-.019.056h-2.635a2.656,2.656,0,0,0-.626-1.934,2.612,2.612,0,0,0-1.934-.635,2.184,2.184,0,0,0-1.9.979,4.329,4.329,0,0,0-.682,2.528v2.7a4.2,4.2,0,0,0,.719,2.542,2.337,2.337,0,0,0,2,.983,2.378,2.378,0,0,0,1.814-.635,2.765,2.765,0,0,0,.6-1.953Zm7.9,2.987a3.408,3.408,0,0,1-1.178,1.243,3.123,3.123,0,0,1-1.661.436,3.052,3.052,0,0,1-2.482-1.076,5.162,5.162,0,0,1-.9-3.34V7.962h2.7V13.8a3.24,3.24,0,0,0,.357,1.8,1.283,1.283,0,0,0,1.109.487,2.7,2.7,0,0,0,1.113-.209,1.877,1.877,0,0,0,.761-.617v-7.3h2.709V18h-2.245ZM131.548,18a5.7,5.7,0,0,1-.255-.724,5.035,5.035,0,0,1-.153-.779,3.713,3.713,0,0,1-1.1,1.215,2.767,2.767,0,0,1-1.633.482,3.39,3.39,0,0,1-2.431-.812,2.908,2.908,0,0,1-.854-2.213,2.647,2.647,0,0,1,1.136-2.287,5.676,5.676,0,0,1,3.317-.812h1.521v-.8a1.562,1.562,0,0,0-.38-1.123,1.493,1.493,0,0,0-1.132-.4,1.471,1.471,0,0,0-1.016.32,1.117,1.117,0,0,0-.357.877H125.6l-.019-.056A2.546,2.546,0,0,1,126.691,8.7a4.815,4.815,0,0,1,3.066-.923,4.494,4.494,0,0,1,2.927.909,3.167,3.167,0,0,1,1.118,2.607v4.147a7.844,7.844,0,0,0,.107,1.327A6.657,6.657,0,0,0,134.247,18Zm-2.477-1.809a2.308,2.308,0,0,0,1.262-.353,1.9,1.9,0,0,0,.761-.816V13.6h-1.521a1.8,1.8,0,0,0-1.3.427,1.4,1.4,0,0,0-.441,1.048,1.047,1.047,0,0,0,.329.812A1.3,1.3,0,0,0,129.071,16.191Zm6.346-3.126a6.523,6.523,0,0,1,1.025-3.832,3.329,3.329,0,0,1,2.89-1.457,2.811,2.811,0,0,1,1.354.325,3.259,3.259,0,0,1,1.058.928v-5.5h2.718V18h-2.31l-.232-1.234a3.356,3.356,0,0,1-1.123,1.062,2.968,2.968,0,0,1-1.484.366,3.394,3.394,0,0,1-2.871-1.354,5.784,5.784,0,0,1-1.025-3.581Zm2.7.195a4.089,4.089,0,0,0,.445,2.073,1.55,1.55,0,0,0,1.447.756,2.108,2.108,0,0,0,1.021-.237,1.887,1.887,0,0,0,.714-.691V10.884a2.085,2.085,0,0,0-.71-.738,1.887,1.887,0,0,0-1.007-.264,1.529,1.529,0,0,0-1.452.881,4.981,4.981,0,0,0-.459,2.3Zm13.721-2.969-.993-.028a1.8,1.8,0,0,0-.993.25,1.587,1.587,0,0,0-.594.705V18h-2.7V7.962h2.514l.121,1.484a3.167,3.167,0,0,1,.914-1.229,2.135,2.135,0,0,1,1.67-.408q.172.032.348.079ZM156.151,18h-2.709V7.962h2.709Zm-.807-14.129h3.015l.019.056-2.57,2.412H153.5Zm7.311,12.246a1.508,1.508,0,0,0,1.123-.422,1.533,1.533,0,0,0,.417-1.127h2.468l.019.056a3.141,3.141,0,0,1-1.132,2.547,4.233,4.233,0,0,1-2.895,1.025,4.278,4.278,0,0,1-3.442-1.424A5.412,5.412,0,0,1,158,13.129v-.278a5.448,5.448,0,0,1,1.211-3.641,4.24,4.24,0,0,1,3.428-1.433A4.14,4.14,0,0,1,165.6,8.834a3.534,3.534,0,0,1,1.085,2.783l-.019.056h-2.468a2,2,0,0,0-.413-1.294,1.387,1.387,0,0,0-1.146-.515,1.546,1.546,0,0,0-1.489.84,4.6,4.6,0,0,0-.441,2.148v.278a4.588,4.588,0,0,0,.441,2.162A1.567,1.567,0,0,0,162.655,16.117Zm11.754.4a3.408,3.408,0,0,1-1.178,1.243,3.123,3.123,0,0,1-1.661.436,3.052,3.052,0,0,1-2.482-1.076,5.162,5.162,0,0,1-.9-3.34V7.962h2.7V13.8a3.241,3.241,0,0,0,.357,1.8,1.283,1.283,0,0,0,1.109.487,2.7,2.7,0,0,0,1.113-.209,1.877,1.877,0,0,0,.761-.617v-7.3h2.709V18H174.7ZM181.831,18h-2.709V3.527h2.709Zm8.146,0a5.7,5.7,0,0,1-.255-.724,5.035,5.035,0,0,1-.153-.779,3.713,3.713,0,0,1-1.1,1.215,2.767,2.767,0,0,1-1.633.482,3.39,3.39,0,0,1-2.431-.812,2.908,2.908,0,0,1-.854-2.213,2.647,2.647,0,0,1,1.136-2.287A5.676,5.676,0,0,1,188,12.072h1.521v-.8a1.562,1.562,0,0,0-.38-1.123,1.493,1.493,0,0,0-1.132-.4,1.471,1.471,0,0,0-1.016.32,1.117,1.117,0,0,0-.357.877H184.03l-.019-.056A2.546,2.546,0,0,1,185.12,8.7a4.815,4.815,0,0,1,3.066-.923,4.494,4.494,0,0,1,2.927.909,3.167,3.167,0,0,1,1.118,2.607v4.147a7.844,7.844,0,0,0,.107,1.327A6.657,6.657,0,0,0,192.676,18ZM187.5,16.191a2.308,2.308,0,0,0,1.262-.353,1.9,1.9,0,0,0,.761-.816V13.6H188a1.8,1.8,0,0,0-1.3.427,1.4,1.4,0,0,0-.441,1.048,1.047,1.047,0,0,0,.329.812A1.3,1.3,0,0,0,187.5,16.191Z" transform="translate(285 6467)" fill="#0b481e"/>
    <path id="Trazado_713162" data-name="Trazado 713162" d="M113.383,15.922h6.2V18h-9.389V16.59L116.2,6.58h-6V4.492h9.222V5.847ZM124.154,18h-2.709V7.962h2.709Zm0-12.441h-2.709V3.527h2.709Zm1.828,7.505a6.5,6.5,0,0,1,1.03-3.832,3.341,3.341,0,0,1,2.895-1.457,2.85,2.85,0,0,1,1.484.38,3.332,3.332,0,0,1,1.095,1.085l.213-1.28h2.329v9.992a3.731,3.731,0,0,1-1.28,3.029,5.405,5.405,0,0,1-3.572,1.072,6.8,6.8,0,0,1-1.614-.209,7.5,7.5,0,0,1-1.577-.571l.455-2.022a6.217,6.217,0,0,0,1.285.45,6.367,6.367,0,0,0,1.433.153,2.425,2.425,0,0,0,1.637-.464,1.836,1.836,0,0,0,.524-1.447v-.909a3.03,3.03,0,0,1-1.048.863,3.09,3.09,0,0,1-1.382.3,3.407,3.407,0,0,1-2.876-1.354,5.765,5.765,0,0,1-1.03-3.581Zm2.709.195a4.124,4.124,0,0,0,.441,2.073,1.54,1.54,0,0,0,1.443.756,2.236,2.236,0,0,0,1.053-.227,1.736,1.736,0,0,0,.691-.663V10.847a1.851,1.851,0,0,0-.691-.714,2.026,2.026,0,0,0-1.034-.25,1.519,1.519,0,0,0-1.447.881,5.024,5.024,0,0,0-.455,2.3Zm18.926.009h-5.464V11.181h5.464Zm10.094,2.653h6.2V18h-9.389V16.59L160.53,6.58h-6V4.492h9.222V5.847ZM171.552,18a5.7,5.7,0,0,1-.255-.724,5.035,5.035,0,0,1-.153-.779,3.713,3.713,0,0,1-1.1,1.215,2.767,2.767,0,0,1-1.633.482,3.39,3.39,0,0,1-2.431-.812,2.908,2.908,0,0,1-.854-2.213,2.647,2.647,0,0,1,1.136-2.287,5.676,5.676,0,0,1,3.317-.812H171.1v-.8a1.562,1.562,0,0,0-.38-1.123,1.493,1.493,0,0,0-1.132-.4,1.471,1.471,0,0,0-1.016.32,1.117,1.117,0,0,0-.357.877H165.6l-.019-.056A2.546,2.546,0,0,1,166.695,8.7a4.815,4.815,0,0,1,3.066-.923,4.494,4.494,0,0,1,2.927.909,3.167,3.167,0,0,1,1.118,2.607v4.147a7.844,7.844,0,0,0,.107,1.327A6.657,6.657,0,0,0,174.251,18Zm-2.477-1.809a2.308,2.308,0,0,0,1.262-.353,1.9,1.9,0,0,0,.761-.816V13.6h-1.521a1.8,1.8,0,0,0-1.3.427,1.4,1.4,0,0,0-.441,1.048,1.047,1.047,0,0,0,.329.812A1.3,1.3,0,0,0,169.074,16.191Zm6.364-3.126a6.5,6.5,0,0,1,1.03-3.832,3.341,3.341,0,0,1,2.895-1.457,2.85,2.85,0,0,1,1.484.38,3.332,3.332,0,0,1,1.095,1.085l.213-1.28h2.329v9.992a3.731,3.731,0,0,1-1.28,3.029,5.405,5.405,0,0,1-3.572,1.072,6.8,6.8,0,0,1-1.614-.209,7.5,7.5,0,0,1-1.577-.571l.455-2.022a6.217,6.217,0,0,0,1.285.45,6.367,6.367,0,0,0,1.433.153,2.425,2.425,0,0,0,1.637-.464,1.836,1.836,0,0,0,.524-1.447v-.909a3.03,3.03,0,0,1-1.048.863,3.09,3.09,0,0,1-1.382.3,3.407,3.407,0,0,1-2.876-1.354,5.765,5.765,0,0,1-1.03-3.581Zm2.709.195a4.124,4.124,0,0,0,.441,2.073,1.54,1.54,0,0,0,1.443.756,2.236,2.236,0,0,0,1.053-.227,1.736,1.736,0,0,0,.691-.663V10.847a1.851,1.851,0,0,0-.691-.714,2.026,2.026,0,0,0-1.034-.25,1.519,1.519,0,0,0-1.447.881,5.024,5.024,0,0,0-.455,2.3Z" transform="translate(653 6467)" fill="#0b481e"/>
    <path id="Trazado_713163" data-name="Trazado 713163" d="M101.225,18V4.492h4.713a5.573,5.573,0,0,1,4.082,1.582,5.453,5.453,0,0,1,1.6,4.059v2.236a5.433,5.433,0,0,1-1.6,4.059A5.591,5.591,0,0,1,105.938,18Zm2.709-11.42v9.342h2a2.645,2.645,0,0,0,2.152-1,3.9,3.9,0,0,0,.816-2.556V10.114a3.87,3.87,0,0,0-.816-2.542,2.65,2.65,0,0,0-2.152-.993ZM116.439,18H113.73V7.962h2.709Zm0-12.441H113.73V3.527h2.709ZM124.585,18a5.7,5.7,0,0,1-.255-.724,5.033,5.033,0,0,1-.153-.779,3.713,3.713,0,0,1-1.1,1.215,2.767,2.767,0,0,1-1.633.482,3.39,3.39,0,0,1-2.431-.812,2.908,2.908,0,0,1-.854-2.213,2.647,2.647,0,0,1,1.136-2.287,5.676,5.676,0,0,1,3.317-.812h1.521v-.8a1.562,1.562,0,0,0-.38-1.123,1.493,1.493,0,0,0-1.132-.4,1.472,1.472,0,0,0-1.016.32,1.117,1.117,0,0,0-.357.877h-2.607l-.019-.056A2.546,2.546,0,0,1,119.728,8.7a4.815,4.815,0,0,1,3.066-.923,4.494,4.494,0,0,1,2.927.909,3.167,3.167,0,0,1,1.118,2.607v4.147a7.843,7.843,0,0,0,.107,1.327A6.657,6.657,0,0,0,127.285,18Zm-2.477-1.809a2.308,2.308,0,0,0,1.262-.353,1.9,1.9,0,0,0,.761-.816V13.6h-1.521a1.8,1.8,0,0,0-1.3.427,1.4,1.4,0,0,0-.441,1.048,1.047,1.047,0,0,0,.329.812A1.3,1.3,0,0,0,122.108,16.191Zm6.364-3.126a6.5,6.5,0,0,1,1.03-3.832A3.341,3.341,0,0,1,132.4,7.776a2.85,2.85,0,0,1,1.484.38,3.332,3.332,0,0,1,1.095,1.085l.213-1.28h2.329v9.992a3.731,3.731,0,0,1-1.28,3.029,5.405,5.405,0,0,1-3.572,1.072,6.8,6.8,0,0,1-1.614-.209,7.5,7.5,0,0,1-1.577-.571l.455-2.022a6.217,6.217,0,0,0,1.285.45,6.367,6.367,0,0,0,1.433.153,2.425,2.425,0,0,0,1.637-.464,1.836,1.836,0,0,0,.524-1.447v-.909a3.03,3.03,0,0,1-1.048.863,3.09,3.09,0,0,1-1.382.3A3.407,3.407,0,0,1,129.5,16.84a5.765,5.765,0,0,1-1.03-3.581Zm2.709.195a4.124,4.124,0,0,0,.441,2.073,1.54,1.54,0,0,0,1.443.756,2.236,2.236,0,0,0,1.053-.227,1.736,1.736,0,0,0,.691-.663V10.847a1.851,1.851,0,0,0-.691-.714,2.026,2.026,0,0,0-1.034-.25,1.519,1.519,0,0,0-1.447.881,5.024,5.024,0,0,0-.455,2.3Zm8-.371a5.387,5.387,0,0,1,1.252-3.678,4.366,4.366,0,0,1,3.47-1.433,4.412,4.412,0,0,1,3.488,1.429,5.358,5.358,0,0,1,1.262,3.683v.195a5.366,5.366,0,0,1-1.257,3.688,4.962,4.962,0,0,1-6.958,0,5.366,5.366,0,0,1-1.257-3.688Zm2.7.195a4.367,4.367,0,0,0,.482,2.2,1.853,1.853,0,0,0,3.094,0,4.338,4.338,0,0,0,.487-2.2v-.195a4.294,4.294,0,0,0-.492-2.18,1.664,1.664,0,0,0-1.549-.844,1.643,1.643,0,0,0-1.535.849,4.333,4.333,0,0,0-.487,2.176ZM152.8,7.962l.121,1.438a3.672,3.672,0,0,1,1.234-1.2,3.2,3.2,0,0,1,1.642-.427,2.985,2.985,0,0,1,2.375.979,4.64,4.64,0,0,1,.854,3.094V18H156.3V11.858a2.4,2.4,0,0,0-.376-1.526,1.385,1.385,0,0,0-1.127-.45,2.365,2.365,0,0,0-1.062.227,2.074,2.074,0,0,0-.756.626V18h-2.709V7.962ZM166.964,18a5.7,5.7,0,0,1-.255-.724,5.035,5.035,0,0,1-.153-.779,3.713,3.713,0,0,1-1.1,1.215,2.767,2.767,0,0,1-1.633.482,3.39,3.39,0,0,1-2.431-.812,2.908,2.908,0,0,1-.854-2.213,2.647,2.647,0,0,1,1.136-2.287,5.676,5.676,0,0,1,3.317-.812h1.521v-.8a1.562,1.562,0,0,0-.38-1.123,1.493,1.493,0,0,0-1.132-.4,1.471,1.471,0,0,0-1.016.32,1.117,1.117,0,0,0-.357.877h-2.607L161,10.894A2.546,2.546,0,0,1,162.107,8.7a4.815,4.815,0,0,1,3.066-.923,4.494,4.494,0,0,1,2.927.909,3.167,3.167,0,0,1,1.118,2.607v4.147a7.844,7.844,0,0,0,.107,1.327A6.657,6.657,0,0,0,169.664,18Zm-2.477-1.809a2.308,2.308,0,0,0,1.262-.353,1.9,1.9,0,0,0,.761-.816V13.6h-1.521a1.8,1.8,0,0,0-1.3.427,1.4,1.4,0,0,0-.441,1.048,1.047,1.047,0,0,0,.329.812A1.3,1.3,0,0,0,164.487,16.191ZM174.1,18h-2.709V3.527H174.1Zm6.578.195a4.517,4.517,0,0,1-3.507-1.378,5.049,5.049,0,0,1-1.262-3.549V12.9a5.5,5.5,0,0,1,1.225-3.692A4.163,4.163,0,0,1,180.5,7.776a3.9,3.9,0,0,1,3.1,1.239,4.895,4.895,0,0,1,1.081,3.335v1.4H178.7l-.028.056a2.712,2.712,0,0,0,.626,1.67,2.1,2.1,0,0,0,1.665.64,5.572,5.572,0,0,0,1.545-.186,6.3,6.3,0,0,0,1.313-.566l.733,1.67a5.028,5.028,0,0,1-1.633.826A7.241,7.241,0,0,1,180.676,18.195ZM180.5,9.864a1.5,1.5,0,0,0-1.257.561,2.815,2.815,0,0,0-.533,1.489l.019.046h3.3v-.2a2.345,2.345,0,0,0-.362-1.387A1.338,1.338,0,0,0,180.5,9.864Zm11.188,5.353a.935.935,0,0,0-.431-.765,4.382,4.382,0,0,0-1.6-.561,6.383,6.383,0,0,1-2.677-1.067,2.33,2.33,0,0,1-.914-1.939,2.766,2.766,0,0,1,1.095-2.2,4.414,4.414,0,0,1,2.913-.909,4.763,4.763,0,0,1,3.048.909,2.656,2.656,0,0,1,1.1,2.264L194.2,11h-2.616a1.314,1.314,0,0,0-.39-.983,1.822,1.822,0,0,0-2.152-.056,1.01,1.01,0,0,0-.38.8.9.9,0,0,0,.394.756,4.389,4.389,0,0,0,1.6.524,6.512,6.512,0,0,1,2.751,1.09,2.391,2.391,0,0,1,.9,1.981,2.65,2.65,0,0,1-1.16,2.217,5.005,5.005,0,0,1-3.062.863,4.653,4.653,0,0,1-3.168-1.016,2.84,2.84,0,0,1-1.109-2.315l.019-.056h2.477a1.408,1.408,0,0,0,.529,1.169,2.183,2.183,0,0,0,1.308.362,1.86,1.86,0,0,0,1.146-.3A.978.978,0,0,0,191.688,15.217Z" transform="translate(1020 6467)" fill="#0b481e"/>
  </g>
</svg>
